<?xml version="1.0" standalone="no"?>
<!DOCTYPE svg PUBLIC "-//W3C//DTD SVG 20010904//EN"
 "http://www.w3.org/TR/2001/REC-SVG-20010904/DTD/svg10.dtd">
<svg version="1.0" xmlns="http://www.w3.org/2000/svg"
 width="1773.000000pt" height="1773.000000pt" viewBox="0 0 1773.000000 1773.000000"
 preserveAspectRatio="xMidYMid meet">
<metadata>
Created by potrace 1.16, written by Peter Selinger 2001-2019
</metadata>
<g transform="translate(0.000000,1773.000000) scale(0.100000,-0.100000)"
fill="#000000" stroke="none">
<path d="M8750 15003 c-444 -30 -719 -71 -1095 -163 -1920 -470 -3484 -1878
-4158 -3746 -210 -580 -326 -1186 -345 -1794 -24 -756 71 -1420 303 -2115 520
-1559 1671 -2835 3175 -3518 221 -100 315 -137 575 -222 1148 -380 2372 -401
3530 -60 726 214 1425 577 2005 1042 1212 973 1993 2354 2189 3873 40 303 46
410 46 785 -1 468 -27 744 -111 1165 -285 1434 -1102 2722 -2279 3595 -925
686 -1994 1078 -3153 1155 -138 9 -567 11 -682 3z m1862 -1563 c7 -11 17 -20
22 -20 5 0 18 -7 28 -17 11 -9 18 -11 18 -5 0 18 18 14 51 -9 16 -11 29 -17
29 -13 0 5 5 3 12 -4 8 -8 17 -8 30 -1 15 8 29 5 60 -10 22 -11 46 -17 54 -14
8 3 21 0 29 -7 8 -6 18 -9 24 -6 5 3 21 2 34 -3 18 -7 27 -7 31 2 3 9 7 8 14
-2 6 -8 16 -16 24 -17 7 -1 40 -7 73 -13 33 -6 82 -13 108 -16 26 -3 60 -11
75 -17 15 -6 37 -10 50 -9 13 2 29 -3 37 -9 7 -6 42 -13 77 -16 35 -3 70 -7
80 -10 9 -3 19 0 22 5 4 5 21 7 39 5 44 -7 112 18 110 41 -1 12 2 14 10 6 6
-6 26 -11 43 -11 18 0 50 -10 71 -22 20 -12 47 -23 58 -24 33 -1 85 -27 85
-42 0 -8 5 -10 13 -5 6 4 17 8 22 8 11 1 11 20 0 50 -7 19 -7 19 10 3 10 -9
18 -27 18 -41 0 -16 6 -27 19 -30 10 -3 18 -9 17 -14 -4 -21 2 -32 14 -27 19
7 57 -77 57 -127 0 -16 7 -41 16 -54 15 -23 15 -25 0 -31 -23 -9 -20 -22 7
-27 22 -4 22 -4 -3 -15 l-25 -11 25 -1 c14 -1 19 -4 13 -7 -7 -2 -13 -16 -13
-30 0 -22 3 -24 25 -19 14 4 30 4 35 1 14 -8 -1 -44 -21 -50 -10 -4 -19 -14
-19 -23 0 -13 2 -14 9 -3 13 20 24 -4 17 -37 -3 -15 -3 -21 0 -14 5 10 9 10
20 1 21 -18 17 -38 -6 -32 -14 4 -20 1 -18 -8 4 -19 40 -33 49 -18 3 6 12 10
20 7 7 -2 -4 -12 -24 -21 -20 -10 -39 -22 -42 -27 -4 -7 -13 -7 -25 0 -20 11
-67 14 -58 4 7 -7 -49 -64 -80 -82 -21 -12 -26 -6 -24 28 0 3 -12 6 -26 7 -43
3 -71 9 -78 16 -11 11 -24 8 -24 -6 0 -7 -10 -18 -21 -26 -21 -12 -22 -12 -16
17 6 30 6 30 -25 21 -23 -6 -34 -5 -40 4 -6 7 -8 -2 -6 -23 3 -32 0 -35 -24
-38 -20 -2 -35 4 -52 23 -26 28 -30 26 -40 -22 -4 -17 -23 -53 -42 -80 -38
-54 -42 -77 -16 -92 9 -6 14 -11 10 -12 -5 -1 -11 -3 -15 -4 -5 -2 -18 -6 -30
-10 -13 -4 -21 -11 -18 -15 3 -4 -4 -10 -14 -13 -11 -3 -22 -17 -26 -36 -4
-17 -20 -46 -36 -64 -16 -17 -29 -37 -29 -43 0 -6 -7 -17 -16 -24 -8 -7 -14
-23 -13 -34 3 -40 -13 -87 -28 -82 -10 4 -13 0 -11 -13 2 -10 -3 -25 -9 -33
-18 -22 -18 -185 0 -227 l14 -34 7 39 c5 24 10 33 15 25 6 -9 12 -3 19 18 6
17 9 31 6 31 -3 0 8 21 23 48 45 77 127 146 186 157 20 4 39 10 42 14 3 6 78
6 95 0 3 -1 9 -1 13 0 4 1 37 -6 73 -14 36 -8 78 -15 95 -15 16 0 29 -4 29 -9
0 -4 20 -14 44 -21 52 -14 132 -83 104 -88 -10 -2 -32 7 -50 19 -20 15 -33 19
-35 12 -3 -9 -14 -8 -41 1 -42 14 -214 12 -272 -4 -19 -5 -48 -10 -65 -10 -54
0 -100 -24 -153 -79 -52 -54 -65 -81 -37 -81 8 0 15 -6 16 -12 1 -7 4 -2 8 12
12 44 36 36 48 -17 6 -26 10 -49 9 -51 -9 -8 -86 12 -86 23 0 7 -6 18 -14 24
-11 9 -15 5 -20 -24 -7 -35 -1 -59 12 -51 4 2 41 7 83 10 63 5 87 3 150 -18
86 -28 155 -36 152 -18 -2 7 13 33 33 59 35 45 36 50 32 115 -4 66 -3 68 20
68 13 0 46 -12 72 -27 42 -24 48 -31 45 -55 -2 -15 0 -28 5 -28 16 0 19 -44 4
-71 -18 -36 -19 -58 -2 -41 16 16 28 15 28 -2 0 -22 -51 -53 -82 -50 -15 2
-30 -2 -34 -7 -3 -6 -12 -5 -22 3 -12 10 -16 10 -19 1 -3 -7 -9 -13 -14 -13
-4 0 -6 7 -2 16 3 9 2 15 -3 12 -5 -2 -26 -12 -47 -21 -45 -21 -46 -46 -3 -62
22 -8 30 -7 34 3 2 8 14 11 37 6 18 -3 35 -1 39 4 3 6 16 8 28 4 17 -4 20 -2
15 11 -4 10 -2 17 3 17 6 0 10 -12 10 -27 l0 -28 25 29 c15 18 25 23 25 15 0
-8 -4 -19 -9 -25 -6 -5 -13 -29 -17 -54 l-6 -45 21 21 c12 11 23 30 24 42 2
28 17 29 17 2 0 -24 15 -26 24 -4 4 11 13 14 31 10 14 -4 25 -2 25 3 0 5 -10
11 -22 13 -12 2 -23 9 -26 16 -3 10 5 13 29 10 28 -3 33 0 34 21 1 14 7 27 13
29 17 5 15 22 -4 43 -15 16 -14 17 5 12 13 -3 21 -1 21 7 0 10 3 10 15 0 13
-10 15 -9 15 9 0 12 6 21 15 21 18 0 20 -21 3 -38 -10 -10 -10 -15 -2 -20 9
-5 12 -107 11 -359 -1 -193 -5 -349 -9 -347 -4 3 -8 -4 -8 -16 0 -11 -6 -23
-14 -26 -8 -3 -12 -12 -10 -19 3 -8 -2 -30 -11 -49 -10 -20 -15 -42 -12 -50 3
-8 -1 -20 -8 -26 -8 -7 -12 -16 -10 -21 3 -4 1 -16 -4 -26 -6 -10 -17 -40 -25
-68 -25 -83 -47 -149 -57 -168 -5 -10 -7 -22 -4 -27 3 -5 -3 -28 -15 -52 -11
-23 -20 -50 -20 -59 0 -10 -7 -25 -16 -33 -8 -9 -13 -20 -9 -25 3 -5 1 -12 -5
-16 -5 -3 -10 -17 -10 -30 0 -13 -25 -72 -55 -131 -30 -59 -55 -114 -55 -121
0 -7 -4 -13 -10 -13 -5 0 -10 6 -10 14 0 8 -7 17 -16 20 -8 3 -13 10 -10 14 3
5 -4 15 -15 22 -10 8 -19 19 -19 26 0 18 -70 84 -89 84 -16 0 -81 24 -136 51
-15 7 -31 5 -59 -6 -39 -16 -40 -16 -58 7 -9 12 -18 29 -18 36 0 6 -5 12 -12
12 -6 0 -9 3 -5 6 8 8 -20 64 -32 64 -12 0 -28 -22 -33 -45 -4 -16 -8 -11 -22
23 -18 41 -54 62 -41 23 3 -11 0 -21 -8 -24 -14 -5 -17 -41 -5 -53 4 -3 3 -16
-1 -28 -6 -14 -4 -25 7 -36 12 -10 17 -11 20 -2 2 7 10 12 18 12 8 0 11 -6 8
-15 -4 -8 -1 -15 5 -15 6 0 11 -6 11 -14 0 -8 9 -18 21 -21 11 -4 24 -17 29
-30 5 -14 24 -29 44 -36 20 -7 36 -17 36 -23 0 -5 23 -32 51 -58 48 -47 63
-89 28 -79 -8 2 -24 5 -36 6 -12 1 -29 7 -37 14 -9 8 -16 9 -16 4 0 -11 -103
-33 -110 -24 -3 4 -50 7 -105 7 -125 0 -170 6 -193 24 -20 17 -62 5 -62 -18 0
-10 -8 -12 -27 -8 -16 4 -47 8 -71 11 -23 2 -48 7 -54 11 -13 8 -493 21 -493
14 0 -1 -18 -3 -40 -4 -22 -1 -50 -6 -62 -10 -17 -5 -23 -3 -23 8 0 10 -6 13
-15 10 -8 -4 -12 -10 -9 -15 3 -5 1 -9 -5 -9 -6 0 -13 11 -17 25 -3 14 -13 29
-21 33 -20 12 -8 35 27 50 17 8 30 20 30 27 0 7 7 16 16 19 8 3 13 10 10 15
-4 5 0 12 6 15 9 3 3 14 -17 31 -32 27 -72 27 -88 0 -4 -8 -19 -28 -34 -45
l-26 -31 -27 26 c-20 20 -29 23 -33 13 -4 -10 -10 -8 -22 7 -15 19 -17 19 -29
3 -7 -10 -18 -18 -23 -18 -20 0 -104 -103 -97 -120 4 -8 9 -27 12 -42 5 -33
22 -36 47 -8 10 11 22 20 27 20 5 0 16 7 24 15 17 16 54 20 54 6 0 -5 -14 -15
-30 -23 -26 -11 -30 -17 -25 -38 9 -35 11 -35 38 -6 26 28 53 35 44 12 -5 -14
10 -36 25 -36 4 0 8 7 8 15 0 11 11 13 53 8 66 -7 80 -18 72 -55 -4 -18 -3
-28 5 -28 7 0 10 7 6 15 -3 8 -1 15 4 15 6 0 10 9 10 19 0 29 68 36 171 17 46
-8 111 -16 144 -18 33 -1 65 -6 71 -10 7 -5 31 -10 55 -12 24 -2 45 -8 47 -15
2 -6 14 -8 27 -5 12 3 26 1 30 -5 3 -6 17 -8 30 -5 12 3 26 1 29 -5 10 -16 52
-13 66 4 10 12 15 12 36 -1 19 -13 30 -14 55 -5 41 14 42 14 35 -4 -4 -11 2
-15 21 -15 21 0 24 2 13 15 -10 13 -9 15 9 15 13 0 21 -6 21 -16 0 -12 4 -14
13 -7 6 6 33 9 59 8 25 -1 52 1 59 6 7 4 23 3 37 -2 17 -6 29 -6 39 2 20 17
75 19 98 3 26 -19 41 -18 25 1 -10 13 -9 15 8 15 12 0 25 -7 30 -16 8 -15 15
-14 69 5 33 11 69 21 80 21 12 0 23 7 27 15 3 8 14 15 25 15 23 0 83 30 94 48
11 17 27 6 27 -19 0 -11 10 -24 23 -29 17 -7 18 -9 5 -9 -11 -1 -17 -8 -16
-18 3 -38 -3 -53 -20 -53 -10 0 -23 5 -29 11 -7 7 -13 7 -17 0 -4 -5 3 -15 14
-21 21 -11 28 -50 10 -50 -6 0 -20 -21 -31 -47 -11 -26 -24 -50 -28 -53 -4 -3
-23 -31 -42 -62 -18 -32 -37 -58 -41 -58 -5 0 -8 -5 -8 -10 0 -6 -11 -27 -24
-48 -14 -20 -32 -62 -41 -93 -8 -31 -33 -93 -55 -137 -22 -45 -40 -90 -40
-100 0 -26 -68 -53 -94 -38 -14 8 -20 8 -23 -1 -3 -7 -13 -13 -24 -13 -31 0
-22 -28 11 -35 23 -5 30 -12 30 -31 0 -29 -20 -31 -60 -7 -26 15 -29 15 -45 0
-17 -18 -35 -14 -35 6 0 16 -55 37 -67 27 -4 -5 -16 -10 -25 -12 -15 -3 -15
-7 -3 -41 7 -20 9 -40 4 -43 -5 -3 -9 -14 -9 -25 0 -10 -4 -19 -10 -19 -5 0
-10 5 -10 10 0 6 -6 10 -14 10 -8 0 -16 6 -19 13 -3 8 -11 5 -24 -10 -23 -27
-33 -29 -33 -9 0 8 -9 18 -20 21 -11 3 -20 11 -20 16 0 15 -20 10 -27 -7 -3
-9 0 -20 7 -24 23 -14 4 -39 -27 -36 -21 2 -30 11 -38 32 -5 16 -10 30 -11 32
-5 9 -34 -13 -34 -27 0 -9 -4 -21 -9 -26 -6 -6 -3 -25 9 -50 19 -41 12 -71
-12 -47 -7 7 -24 12 -38 12 -22 0 -30 10 -60 74 -22 46 -39 71 -44 66 -6 -6
-4 -20 4 -35 10 -19 11 -31 4 -43 -18 -28 -32 -24 -39 10 -10 44 -22 57 -46
51 -16 -4 -17 -8 -7 -14 7 -5 14 -20 15 -34 1 -15 11 -35 22 -45 29 -24 26
-45 -9 -70 -31 -22 -50 -20 -50 6 0 8 -5 12 -10 9 -15 -9 -41 15 -33 28 10 17
5 62 -12 94 -8 15 -15 38 -15 51 0 12 -5 22 -10 22 -6 0 -10 -6 -9 -12 3 -25
-1 -38 -12 -38 -8 0 -7 5 1 16 11 13 10 16 -7 20 -15 4 -23 17 -28 41 -10 53
-27 26 -26 -42 0 -53 -1 -56 -22 -49 -12 3 -32 17 -43 30 -25 28 -34 30 -34 9
0 -8 -7 -15 -15 -15 -11 0 -14 7 -9 24 3 13 1 27 -4 30 -11 7 -63 -13 -74 -28
-4 -6 -13 -4 -23 4 -12 10 -16 26 -13 59 2 36 0 45 -11 43 -8 -2 -18 3 -22 10
-4 7 -12 9 -16 4 -4 -4 0 -14 11 -21 10 -8 16 -21 13 -29 -3 -8 -3 -17 1 -20
18 -19 22 -137 5 -143 -7 -3 -13 2 -13 11 0 9 -5 16 -10 16 -7 0 -7 6 0 19 13
25 13 71 0 71 -5 0 -10 -4 -10 -10 0 -22 -16 -8 -31 28 l-16 37 -11 -27 c-19
-46 -37 -25 -37 43 0 39 -5 63 -14 68 -9 6 -11 20 -6 50 6 34 4 41 -9 41 -9 0
-16 -5 -16 -12 0 -13 -29 -48 -41 -48 -4 0 -3 15 2 33 6 17 12 51 15 75 4 39
3 42 -21 42 -14 0 -25 -5 -25 -11 0 -16 -23 -34 -45 -34 -12 0 -21 -9 -25 -25
-4 -15 -14 -26 -27 -28 l-21 -3 19 58 c12 36 16 59 9 61 -22 8 -9 24 15 18 14
-4 25 -2 25 4 0 5 -13 10 -29 10 -20 0 -30 -6 -34 -20 -5 -20 -27 -28 -27 -11
0 6 -23 -12 -51 -39 l-51 -49 -29 27 c-16 15 -27 34 -24 42 2 8 -5 26 -15 40
-20 24 -21 24 -35 6 -8 -10 -16 -24 -18 -30 -3 -7 -12 -4 -26 8 -19 17 -26 15
-22 -7 1 -4 -9 -19 -22 -33 l-24 -25 -16 52 c-9 28 -17 71 -17 95 0 40 -19 72
-28 46 -6 -18 -19 -15 -43 9 -16 16 -21 35 -22 80 -1 40 -6 59 -14 59 -7 0
-13 10 -13 22 0 35 -43 117 -62 118 -15 0 -15 -4 -7 -30 6 -16 16 -30 21 -30
6 0 8 -14 6 -31 -4 -24 0 -33 16 -39 17 -7 14 -9 -16 -9 -37 -1 -38 0 -38 33
0 28 -4 35 -25 40 -14 4 -30 4 -34 1 -5 -2 -11 5 -15 18 -3 12 -1 24 5 26 8 2
8 5 0 10 -6 4 -12 17 -14 30 -2 12 -16 32 -31 44 -22 18 -28 31 -29 69 -1 27
-7 50 -14 52 -7 3 -10 12 -7 21 4 10 0 15 -10 15 -9 0 -16 7 -16 15 0 17 -16
20 -25 4 -4 -6 1 -17 11 -24 18 -13 17 -14 -6 -12 -30 2 -72 36 -66 53 5 13
-15 24 -45 24 -14 0 -19 7 -19 25 0 19 -8 28 -35 39 -24 10 -35 22 -35 35 0
12 -3 21 -7 21 -16 0 -42 78 -47 142 -3 37 -14 87 -24 110 -24 52 -38 178 -21
178 8 0 8 5 -1 16 -8 8 -17 36 -22 62 -20 116 -21 124 -8 132 9 6 7 10 -9 15
-11 3 -21 11 -21 17 0 7 4 7 13 0 17 -14 14 112 -3 150 -10 21 -10 31 -1 42 8
10 9 16 1 21 -17 10 -12 45 8 46 16 1 16 2 0 6 -10 2 -18 10 -18 18 0 7 -6 18
-14 24 -7 6 -12 23 -10 37 1 15 -2 35 -9 44 -8 13 -8 31 0 66 9 37 8 58 -4 97
-8 27 -13 58 -10 67 2 10 1 24 -4 31 -4 7 -5 18 -1 23 10 16 8 60 -3 69 -6 4
-5 10 4 16 8 5 12 18 8 30 -3 12 -2 23 3 26 4 2 5 16 2 30 -2 15 0 25 7 25 6
0 11 5 11 10 0 6 -7 10 -16 10 -11 0 -14 5 -9 18 4 9 8 43 10 74 1 31 7 63 13
71 9 11 8 21 -3 45 -15 28 -12 82 4 82 3 0 7 24 7 53 1 35 -1 46 -6 32 -7 -17
-9 -16 -10 10 -5 102 -1 166 10 180 9 11 9 15 1 15 -9 0 -11 21 -9 70 2 59 6
70 21 70 9 0 17 5 17 10 0 9 -14 14 -32 11 -14 -2 -8 26 7 39 17 14 20 40 5
40 -5 0 -10 9 -10 19 0 11 5 23 10 26 6 3 10 15 10 25 0 10 13 29 29 43 18 14
26 28 21 33 -6 6 -3 21 5 38 8 16 15 35 15 43 0 12 3 13 13 4 18 -15 30 -2 15
17 -10 11 -9 17 5 27 9 7 17 17 17 24 0 11 20 52 31 61 3 3 9 13 12 24 5 11
14 17 25 14 14 -4 17 1 16 21 -3 37 -3 37 -14 21 -5 -8 -12 -11 -16 -7 -4 4 2
14 14 23 12 8 22 22 22 30 0 8 11 19 25 24 14 5 27 20 31 35 4 16 13 25 26 25
17 0 20 -5 16 -30 -3 -16 -1 -30 4 -30 4 0 8 14 8 30 0 17 5 30 11 30 5 0 7 5
4 10 -3 6 3 10 15 10 12 0 29 9 38 19 24 27 62 37 62 17 0 -9 -9 -24 -20 -33
-11 -10 -20 -26 -20 -36 0 -14 -4 -16 -19 -7 -21 11 -37 -2 -26 -20 7 -12 29
-3 81 32 23 15 46 28 50 28 5 0 17 14 26 31 16 27 20 29 33 15 19 -19 19 -27
0 -20 -10 4 -15 0 -15 -11 0 -9 -10 -25 -22 -35 -25 -20 -24 -24 10 -34 17 -6
22 -3 22 12 0 11 7 25 15 32 8 7 15 19 15 27 0 8 21 41 46 74 25 32 46 68 47
79 1 11 6 20 12 20 13 0 45 -36 38 -43 -3 -3 -1 -13 5 -23 8 -14 10 -12 17 12
5 16 7 37 6 47 -1 10 8 26 21 37 13 11 18 19 13 20 -6 0 -15 -4 -20 -9 -6 -6
-17 -4 -29 4 -21 16 -21 16 53 33 48 11 71 7 71 -13 0 -10 13 -13 45 -10 36 2
48 -1 56 -16 5 -11 7 -24 4 -29 -3 -6 0 -10 8 -10 7 0 14 6 15 13 0 6 4 30 8
51 6 34 5 38 -9 33 -11 -4 -14 -2 -10 9 14 37 57 -3 46 -44 -4 -17 1 -24 22
-32 33 -13 47 -4 23 14 -18 14 -14 26 9 26 7 0 13 -9 13 -20 0 -18 21 -26 53
-21 4 1 10 -6 13 -14 4 -8 12 -15 20 -15 8 0 14 -4 14 -9 0 -14 58 -32 66 -20
3 5 14 7 25 4 15 -5 19 -1 19 14 0 12 4 21 8 21 5 0 8 -10 8 -22 -1 -19 4 -22
24 -20 23 3 24 3 7 -10 -18 -13 -17 -15 9 -27 15 -6 30 -8 33 -4 3 4 12 8 20
8 8 0 16 6 19 14 3 10 -2 13 -21 9 -20 -4 -28 0 -32 13 -4 11 -14 19 -23 19
-15 0 -15 1 0 16 10 10 21 13 29 8 8 -4 27 -7 44 -6 25 2 34 -4 55 -35 13 -21
25 -40 27 -42 1 -2 9 1 17 8 11 9 31 5 92 -20 67 -26 92 -31 165 -31 79 -1
129 11 129 31 0 4 14 7 30 6 17 -1 30 2 30 7 0 5 6 8 13 7 25 -3 36 2 41 19 3
9 19 23 36 30 32 14 80 72 60 72 -7 0 -24 -8 -38 -19 -15 -10 -45 -21 -67 -24
-22 -3 -48 -8 -57 -12 -10 -4 -18 -3 -18 3 0 6 -14 24 -31 41 -24 24 -28 35
-20 45 8 10 7 16 -4 26 -8 7 -15 20 -15 28 0 12 -3 13 -11 5 -6 -6 -18 -9 -25
-6 -16 6 -19 33 -4 33 6 0 10 7 10 15 0 22 28 18 42 -5z m1559 -1292 c5 -10
26 -20 47 -24 20 -4 43 -12 51 -18 8 -6 16 -10 18 -8 10 7 23 0 23 -13 0 -10
-10 -15 -27 -15 l-28 0 29 -15 c15 -8 35 -15 43 -15 8 0 11 -5 8 -10 -4 -6 -1
-18 7 -27 9 -12 10 -17 1 -20 -6 -2 -21 -12 -33 -23 l-21 -18 20 -7 c22 -7 27
-20 12 -29 -5 -4 -11 -1 -13 6 -2 6 -23 13 -47 15 -24 2 -60 15 -80 28 -20 13
-56 29 -81 34 -25 6 -46 10 -47 11 -2 0 -11 3 -20 6 -10 3 -27 10 -39 16 -11
5 -24 8 -30 7 -5 -2 -38 1 -74 6 -36 4 -69 9 -75 9 -5 1 -20 7 -33 14 -12 7
-27 10 -32 7 -6 -3 -10 5 -10 20 0 23 2 24 20 15 16 -8 22 -8 26 4 11 30 172
64 292 62 67 -1 86 -5 93 -18z m-3922 -83 c21 -44 56 -77 108 -105 25 -14 54
-36 64 -50 19 -26 52 -201 42 -226 -3 -8 0 -20 5 -27 6 -7 13 -32 14 -55 2
-23 7 -42 11 -42 5 0 5 -4 2 -10 -3 -5 -15 -10 -25 -10 -10 0 -20 -8 -23 -17
-2 -11 -7 -3 -11 20 -9 43 -26 50 -26 10 0 -48 -14 -12 -19 50 -1 5 -5 5 -11
2 -5 -3 -10 -1 -10 5 0 22 -29 20 -56 -5 -15 -14 -38 -28 -51 -31 l-23 -6 26
-20 c17 -14 24 -27 21 -40 -5 -18 -4 -19 20 -3 23 16 25 15 30 -4 4 -16 11
-19 29 -15 22 6 24 3 24 -28 0 -19 3 -38 6 -41 13 -13 43 14 49 43 5 21 13 30
26 30 15 0 19 -7 19 -36 0 -24 -4 -33 -12 -28 -16 10 -3 -77 14 -91 7 -5 12
-28 12 -50 -7 -237 -7 -372 0 -383 11 -19 20 -163 12 -205 -5 -29 -12 -37 -37
-42 -34 -8 -51 2 -118 64 -24 23 -47 41 -51 41 -4 0 -32 25 -63 56 -54 54 -87
106 -87 138 0 9 -4 16 -10 16 -5 0 -10 6 -10 13 0 8 -7 27 -15 44 -8 16 -13
44 -11 61 2 18 0 32 -5 32 -5 0 -16 15 -25 33 -13 23 -19 72 -25 182 -4 83
-12 170 -17 195 -16 73 -25 290 -13 290 6 0 11 9 11 20 0 11 6 20 14 20 8 0
22 10 32 23 16 22 16 22 11 -9 -5 -28 -4 -31 14 -27 12 4 25 0 30 -8 6 -10 9
-10 9 -1 0 6 5 12 11 12 6 0 8 -7 5 -16 -4 -10 3 -19 22 -27 39 -16 88 -75 97
-114 5 -26 12 -33 31 -33 15 0 24 6 24 15 0 8 -3 15 -8 15 -9 0 -37 54 -47 88
-8 27 -79 104 -113 121 -13 7 -22 20 -21 29 2 9 -7 38 -19 64 -28 59 -27 68 1
68 12 0 36 9 52 20 36 24 46 22 64 -15z m256 -1635 c4 -6 11 -8 16 -5 5 4 9
-1 9 -9 0 -9 -9 -21 -19 -28 -16 -9 -17 -16 -8 -35 5 -13 14 -23 18 -23 4 0 5
-17 2 -37 -5 -30 -4 -35 10 -30 11 4 17 -2 22 -24 5 -24 11 -29 26 -24 14 5
17 2 13 -9 -8 -20 -36 -29 -46 -14 -5 9 -8 10 -8 1 0 -7 7 -16 16 -21 10 -5
12 -12 7 -15 -16 -10 -3 -57 13 -50 16 6 19 -13 4 -22 -5 -3 -10 -13 -10 -22
0 -13 3 -13 16 -2 13 10 17 10 25 -2 27 -40 30 -50 19 -64 -8 -10 -8 -15 3
-22 17 -10 34 -56 42 -115 3 -26 11 -50 16 -54 6 -3 15 -18 21 -32 10 -25 11
-26 18 -7 8 18 9 18 10 -5 1 -14 10 -38 21 -55 11 -16 25 -42 31 -58 7 -15 25
-33 40 -40 16 -6 28 -18 28 -24 0 -7 4 -13 9 -13 5 0 11 -9 14 -21 4 -16 11
-19 26 -14 15 4 21 2 21 -8 0 -9 -6 -18 -12 -20 -7 -3 -3 -6 10 -6 12 -1 22
-5 22 -11 0 -5 15 -16 34 -24 22 -9 36 -23 40 -40 3 -14 11 -26 16 -26 6 0 10
-6 10 -14 0 -19 30 -29 46 -15 9 7 14 8 14 1 0 -6 -5 -12 -12 -14 -7 -3 -9
-14 -3 -34 4 -16 10 -23 12 -16 7 19 27 14 38 -10 6 -13 18 -22 28 -22 13 1
17 -6 17 -32 0 -22 5 -34 14 -34 8 0 17 -7 20 -16 4 -9 13 -14 21 -10 9 3 15
-1 15 -10 0 -9 9 -18 20 -21 11 -3 20 -10 21 -17 1 -6 2 -20 3 -31 1 -13 11
-21 35 -26 19 -4 38 -14 43 -23 5 -8 14 -13 22 -10 11 4 38 -23 76 -74 3 -4
17 -15 33 -25 15 -10 27 -26 27 -37 0 -11 4 -20 8 -20 5 0 15 -11 22 -25 7
-14 22 -25 33 -25 25 0 67 -45 67 -71 0 -11 5 -17 10 -14 6 3 10 -1 10 -9 0
-9 6 -16 14 -16 7 0 19 -7 26 -15 9 -10 9 -15 1 -15 -20 0 -12 -36 14 -60 14
-13 25 -20 25 -16 0 4 7 1 15 -8 8 -8 15 -19 15 -25 0 -6 7 -12 15 -12 8 -1
20 -2 27 -3 10 -1 15 -17 20 -68 2 -20 13 -23 23 -8 3 6 23 9 43 9 20 -1 29
-3 20 -6 -21 -5 -24 -38 -5 -50 6 -4 12 -15 12 -23 0 -8 9 -15 20 -15 25 0
111 -59 125 -85 6 -11 20 -20 30 -20 11 0 20 -3 20 -7 0 -10 49 -33 71 -33 9
0 22 -7 29 -15 8 -9 32 -15 64 -16 28 -1 43 -3 34 -6 -10 -2 -18 -11 -18 -20
0 -12 8 -14 35 -10 19 3 37 1 40 -4 4 -5 13 -9 21 -9 11 0 13 6 8 22 -7 22 -6
22 20 4 21 -13 31 -15 41 -6 7 6 19 10 27 9 29 -3 39 2 48 26 11 28 28 33 36
11 3 -8 12 -17 21 -20 10 -4 13 -2 10 7 -3 8 3 13 14 13 11 0 19 -4 19 -9 0
-4 5 -5 10 -2 6 4 7 13 1 24 -5 9 -6 23 -2 29 8 13 41 6 41 -9 0 -13 -18 -11
-23 4 -4 7 -6 6 -6 -4 -1 -9 6 -20 14 -23 14 -5 14 -8 -1 -31 -14 -22 -14 -25
-1 -25 8 0 18 -7 21 -16 10 -26 7 -54 -6 -54 -10 0 -9 -3 1 -9 11 -7 11 -13
-3 -32 -9 -13 -16 -31 -16 -40 0 -9 -15 -24 -34 -33 -19 -9 -36 -21 -38 -27
-2 -6 -16 -12 -31 -12 -15 -1 -27 -5 -27 -9 0 -5 -8 -8 -18 -8 -10 0 -22 -3
-26 -7 -13 -13 -199 -14 -208 0 -6 9 -8 9 -8 0 0 -17 -25 -17 -39 0 -7 10 -35
13 -98 11 -53 -2 -93 2 -101 8 -9 8 -16 8 -24 0 -8 -8 -15 -9 -25 -1 -10 9
-13 7 -13 -10 0 -17 -3 -19 -17 -12 -10 5 -54 22 -98 37 -44 15 -84 31 -90 34
-5 4 -27 13 -47 19 -21 7 -38 17 -38 22 0 5 -7 9 -15 9 -13 0 -65 20 -107 41
-10 5 -23 6 -31 3 -7 -2 -21 4 -31 15 -10 11 -24 17 -32 14 -8 -3 -14 1 -14
11 0 10 -8 16 -21 16 -12 0 -29 8 -38 18 -9 11 -29 22 -44 26 -16 4 -37 15
-48 25 -11 10 -32 24 -47 32 -15 8 -29 17 -32 20 -3 3 -15 11 -28 18 -18 10
-26 10 -38 0 -18 -15 -31 -4 -16 13 7 9 6 19 -4 33 -8 11 -17 19 -19 18 -12
-7 -22 -1 -56 30 -19 17 -47 38 -62 46 -15 8 -27 18 -27 23 0 4 -5 8 -11 8
-14 0 -139 100 -139 112 0 4 -6 8 -12 8 -7 0 -33 19 -57 41 -24 22 -61 50 -82
61 -22 11 -39 24 -39 29 0 5 -7 9 -15 9 -8 0 -15 9 -15 20 0 33 -18 23 -23
-12 -4 -31 -4 -30 -5 7 -2 29 -10 47 -33 71 -17 18 -38 30 -45 27 -9 -3 -14 2
-14 12 0 18 -45 67 -53 58 -3 -2 -8 5 -12 16 -3 12 -12 21 -20 21 -7 0 -15 9
-18 20 -3 11 -12 20 -21 20 -9 0 -16 5 -16 10 0 6 9 10 20 10 11 0 20 5 20 10
0 6 -9 10 -19 10 -14 0 -19 6 -16 20 2 11 0 20 -5 20 -4 0 -13 12 -18 28 -6
15 -11 21 -11 15 -1 -7 -6 -13 -12 -13 -6 0 -9 8 -6 19 3 12 -5 26 -24 42 -16
13 -29 29 -29 35 0 11 -18 23 -32 20 -3 0 -16 11 -28 27 -12 15 -27 27 -33 27
-8 0 -12 22 -12 67 0 54 3 68 15 68 8 0 16 6 16 13 1 6 3 15 4 20 2 4 4 12 5
17 4 24 29 65 39 64 18 -2 56 13 56 22 0 5 -7 6 -15 3 -23 -9 -18 12 11 43 22
25 24 26 19 6 -7 -25 12 -42 22 -18 5 16 7 16 15 1 14 -25 25 -19 21 12 -3 15
1 41 7 57 13 32 15 48 26 228 6 105 9 117 25 117 11 0 19 5 19 10 0 6 -10 10
-21 10 -17 0 -19 3 -10 13 6 8 12 31 13 53 2 21 8 43 13 47 6 6 6 10 -2 14 -9
3 -13 37 -13 119 0 115 1 119 37 115 6 -1 14 3 18 9 3 5 -1 10 -9 10 -17 0
-21 12 -9 23 9 10 21 9 28 -3z m3929 -2379 c5 -7 -133 -81 -150 -81 -3 0 -42
-17 -87 -39 -156 -74 -216 -101 -224 -101 -5 0 -42 -14 -83 -32 -77 -32 -117
-43 -205 -57 -27 -5 -77 -18 -110 -29 -61 -21 -75 -21 -75 4 0 9 11 14 30 14
17 0 30 5 30 10 0 6 13 10 28 10 16 0 32 3 36 7 4 4 22 6 41 5 18 -2 36 1 40
7 3 6 19 11 36 11 16 0 37 4 47 9 53 28 135 61 152 61 11 0 20 3 20 8 0 4 28
16 63 26 34 11 64 22 67 25 10 11 116 59 158 72 23 7 42 16 42 21 0 4 6 8 13
8 7 0 32 11 57 25 49 26 66 30 74 16z m-4438 -116 c18 -14 18 -14 -9 -15 -15
0 -35 -4 -45 -9 -9 -5 -44 -15 -77 -21 -177 -36 -205 -46 -306 -110 -125 -77
-186 -109 -233 -121 -66 -16 -85 3 -19 21 52 14 61 19 170 91 96 63 170 98
229 108 61 12 191 46 224 59 34 15 43 14 66 -3z m-935 -130 c0 -6 -19 -13 -42
-17 -24 -4 -61 -16 -83 -26 -41 -19 -160 -58 -266 -87 -47 -13 -66 -26 -129
-90 -40 -41 -85 -78 -100 -82 -14 -3 -31 -10 -38 -15 -7 -5 -24 -5 -45 1 l-33
9 33 1 c51 1 90 27 172 110 60 61 86 80 130 94 78 26 151 48 180 54 14 3 45
15 70 26 39 19 119 37 143 33 5 -1 8 -6 8 -11z m5534 -975 c6 -10 -17 -40 -30
-40 -4 0 -25 -15 -48 -34 -23 -19 -71 -49 -107 -68 -36 -20 -90 -49 -120 -66
-79 -45 -173 -91 -315 -152 -27 -12 -90 -41 -140 -65 -49 -24 -126 -60 -170
-80 -44 -20 -115 -60 -158 -88 -43 -28 -113 -63 -155 -78 -42 -15 -108 -39
-147 -53 -38 -15 -74 -29 -80 -30 -5 -2 -23 -9 -40 -16 -48 -20 -137 -39 -183
-40 -39 0 -50 -6 -105 -58 -34 -32 -89 -76 -122 -97 -33 -21 -78 -50 -100 -64
-22 -14 -94 -52 -160 -85 -66 -32 -128 -62 -137 -67 -10 -5 -23 -9 -29 -9 -10
0 -28 -8 -204 -90 -131 -61 -142 -65 -230 -95 -44 -15 -88 -31 -97 -36 -69
-36 -346 -135 -403 -144 -11 -2 -51 -11 -90 -20 -38 -8 -108 -20 -155 -26
-159 -18 -215 -28 -330 -54 -63 -14 -133 -30 -155 -35 -46 -11 -146 -37 -190
-50 -92 -27 -285 -75 -375 -95 -36 -7 -85 -19 -110 -25 -25 -7 -83 -16 -130
-20 -47 -5 -119 -13 -160 -19 -41 -6 -115 -10 -165 -9 l-90 1 75 8 c229 24
273 30 360 44 52 9 118 21 145 26 28 5 66 12 85 15 19 3 42 8 50 11 8 4 38 12
65 19 28 6 86 22 130 34 44 12 103 28 130 35 28 7 88 25 135 38 47 14 128 33
180 42 52 9 111 20 130 25 65 15 156 30 187 30 26 0 152 25 253 50 19 5 53 13
75 18 22 5 70 23 108 41 37 17 72 31 77 31 5 0 42 15 82 34 40 19 98 42 128
51 30 10 60 21 65 25 6 4 23 10 39 14 16 4 48 16 70 27 22 10 46 19 54 19 8 0
26 9 42 20 15 11 67 33 116 51 127 44 101 32 324 147 25 12 72 41 105 62 33
22 69 44 81 49 30 13 144 121 144 135 0 20 42 37 85 35 68 -2 160 17 240 50
11 5 54 21 95 36 93 34 106 39 152 59 20 9 39 16 42 16 4 0 47 27 96 60 49 33
94 60 100 60 10 0 139 58 185 83 60 33 108 56 175 84 191 81 226 96 240 108 8
7 55 34 104 60 49 25 96 53 104 62 8 8 39 26 68 40 29 13 60 33 70 44 19 21
30 24 39 9z m-3278 -27 c3 -7 -18 -13 -49 -16 -29 -3 -66 -8 -83 -11 -16 -4
-66 -13 -110 -22 -186 -35 -206 -40 -320 -73 -69 -20 -150 -35 -270 -50 -33
-5 -76 -13 -95 -19 -53 -16 -105 -21 -120 -12 -22 14 0 30 40 30 21 0 41 4 44
9 3 4 27 11 53 14 217 28 335 52 385 78 10 5 26 9 35 9 10 0 47 6 83 14 36 8
92 20 125 26 33 6 76 16 95 22 91 26 179 26 187 1z m-1163 -93 c-11 -11 -81
-39 -179 -72 -33 -11 -70 -25 -82 -31 -15 -7 -58 -7 -130 -1 -156 13 -346 10
-438 -5 -44 -8 -156 -17 -250 -21 -93 -5 -197 -13 -230 -18 -91 -16 -145 -15
-145 2 0 10 17 16 58 19 31 3 86 11 122 17 36 6 124 13 195 15 72 2 166 9 210
16 90 13 341 15 486 4 77 -6 101 -4 125 8 17 9 59 25 94 37 36 12 69 26 75 31
5 5 29 9 54 9 31 0 42 -3 35 -10z m-3071 -56 c20 -8 56 -21 80 -30 42 -15 244
-115 304 -150 35 -20 47 -50 16 -36 -33 15 -88 42 -103 51 -43 27 -221 111
-233 111 -8 0 -28 7 -43 15 -16 8 -37 15 -48 15 -28 0 -96 22 -96 31 0 22 53
19 123 -7z m7684 -1187 c-39 -49 -109 -120 -136 -137 -13 -8 -32 -22 -40 -30
-61 -56 -187 -141 -337 -225 -70 -40 -400 -207 -454 -229 -25 -11 -101 -46
-170 -79 -115 -54 -159 -76 -370 -182 -41 -21 -82 -44 -91 -52 -9 -8 -32 -22
-50 -32 -239 -126 -336 -179 -374 -205 -49 -34 -68 -45 -107 -62 -21 -9 -38
-20 -38 -24 0 -5 -10 -12 -22 -16 -13 -4 -48 -24 -79 -44 -31 -20 -69 -44 -85
-52 -191 -99 -330 -168 -339 -168 -6 0 -37 -13 -70 -30 -33 -16 -67 -30 -75
-30 -8 0 -32 -9 -52 -20 -20 -10 -74 -33 -120 -50 -45 -17 -99 -37 -118 -45
-33 -13 -85 -31 -202 -74 -102 -37 -247 -81 -266 -81 -10 0 -22 -3 -26 -7 -14
-14 -125 -48 -206 -63 -52 -9 -206 -48 -235 -59 -64 -25 -160 -49 -230 -57
-22 -3 -50 -10 -61 -16 -12 -5 -30 -8 -40 -6 -25 6 49 28 92 28 17 0 34 3 38
7 12 12 80 33 108 33 15 0 29 4 33 9 3 6 26 13 50 17 25 3 48 10 51 15 3 5 18
9 33 9 15 0 31 4 36 8 10 8 74 25 145 37 32 6 64 15 115 35 11 4 47 15 80 25
57 17 196 67 240 85 11 4 45 15 75 24 30 9 80 27 110 41 30 13 109 45 175 70
136 52 201 79 262 106 23 11 44 19 48 19 8 0 145 68 180 90 17 10 38 19 48 19
9 1 17 6 17 11 0 6 6 10 13 10 6 0 39 17 72 38 33 21 67 41 75 45 8 4 24 13
35 20 21 13 187 111 233 138 15 8 61 34 102 56 41 22 98 53 125 69 28 16 68
38 90 49 22 11 42 22 45 26 3 3 37 23 75 44 75 40 80 43 195 100 41 20 98 49
125 63 28 15 71 36 95 46 74 31 149 66 260 119 165 79 172 82 230 114 30 17
80 44 110 60 128 70 159 88 235 138 44 29 92 64 108 76 15 13 46 38 68 54 66
48 149 128 167 160 13 24 17 27 20 12 2 -10 -8 -32 -21 -50z"/>
<path d="M9818 12748 c-13 -10 -33 -18 -45 -18 -30 0 -54 -11 -47 -21 3 -5 20
-9 38 -9 28 0 32 -3 31 -22 -1 -13 -7 -24 -13 -24 -7 -1 -13 -2 -14 -4 -2 -1
-11 -3 -21 -5 -10 -2 -29 -11 -43 -20 -19 -12 -29 -14 -39 -5 -10 8 -14 8 -17
-1 -2 -7 -15 -13 -28 -15 -47 -5 -75 -22 -105 -63 -16 -22 -33 -41 -36 -41
-11 0 -72 -60 -63 -60 5 0 2 -5 -6 -10 -8 -5 -15 -15 -15 -22 -1 -22 -46 -88
-60 -88 -20 0 -24 -23 -7 -36 23 -17 6 -54 -25 -54 -21 0 -24 -2 -13 -15 10
-12 10 -15 -4 -15 -9 0 -16 -6 -16 -14 0 -16 43 -27 62 -15 10 7 10 9 1 9 -7
0 -13 4 -13 9 0 5 11 9 25 9 30 0 30 0 40 30 5 19 2 25 -14 29 -29 7 -26 21 4
19 14 0 25 -6 25 -12 0 -17 60 -26 78 -12 12 10 16 10 19 1 3 -7 12 -13 20
-13 13 0 13 3 3 15 -10 13 -9 15 10 15 16 0 20 4 16 16 -3 9 -6 24 -6 35 0 16
-8 19 -42 20 -24 0 -36 3 -28 6 8 3 18 10 21 16 6 9 89 15 259 20 59 2 65 4
68 25 2 12 -2 22 -7 22 -11 0 -9 19 6 73 2 9 9 17 14 17 14 0 11 -38 -3 -43
-7 -2 -10 -8 -5 -12 4 -5 13 -3 19 3 15 15 48 16 48 2 0 -5 9 -10 20 -10 11 0
20 -6 20 -14 0 -16 63 -31 68 -16 2 5 8 10 13 10 6 0 8 -4 5 -9 -3 -5 11 -9
32 -9 37 1 102 -19 177 -53 22 -10 54 -21 70 -24 17 -4 39 -11 50 -16 11 -5
58 -18 105 -28 47 -11 93 -23 103 -26 12 -5 17 -2 17 9 0 9 4 16 10 16 5 0 9
-10 7 -22 -2 -19 3 -23 28 -24 36 -2 58 13 50 34 -4 11 0 13 19 8 20 -5 23 -3
19 14 -3 11 0 20 6 20 6 0 8 12 4 32 -4 21 -3 29 5 24 12 -7 56 121 50 149 -5
27 -36 44 -48 26 -6 -11 -12 -7 -22 19 -13 32 -16 34 -73 37 -81 4 -117 8
-135 15 -43 18 -173 23 -265 12 -43 -6 -48 -5 -37 8 13 16 7 28 -15 28 -8 0
-21 7 -30 15 -8 9 -23 13 -33 10 -10 -3 -21 -1 -25 5 -3 5 -17 10 -29 10 -13
0 -29 7 -37 16 -8 10 -21 13 -36 9 -13 -3 -33 0 -46 7 -34 18 -93 16 -119 -4z"/>
<path d="M9975 12167 c-33 -4 -69 -12 -80 -17 -11 -5 -37 -14 -57 -21 -21 -7
-38 -17 -38 -21 0 -4 -7 -8 -16 -8 -31 0 -103 -54 -114 -84 -14 -39 -13 -46 6
-46 11 0 15 6 11 20 -4 14 0 20 13 20 10 0 23 7 30 15 7 8 19 15 27 15 7 0 16
7 19 15 4 8 14 15 23 15 9 0 27 9 41 20 14 11 32 20 40 20 8 0 33 7 55 14 22
8 71 17 108 21 44 5 65 11 59 17 -13 13 -55 15 -127 5z"/>
<path d="M10197 12009 c-9 -6 -72 -12 -140 -14 -67 -2 -132 -4 -144 -5 -12 0
-25 -5 -28 -10 -3 -6 -21 -10 -39 -10 -20 0 -43 -9 -58 -22 -35 -32 -64 -48
-87 -48 -11 0 -23 -5 -26 -10 -4 -6 -22 -17 -41 -25 -19 -8 -37 -21 -40 -30
-3 -8 -12 -15 -20 -15 -17 0 -19 -20 -1 -20 6 0 2 -8 -11 -18 -32 -25 -20 -56
18 -49 15 3 39 0 53 -8 21 -11 27 -11 27 -1 0 18 24 66 33 66 4 0 7 -7 7 -15
0 -10 8 -14 23 -11 17 3 21 9 19 28 -2 18 5 28 25 39 16 8 32 20 36 26 16 26
25 12 29 -45 3 -44 11 -68 33 -99 40 -56 69 -70 152 -72 67 -2 73 0 108 30 20
18 43 45 51 61 19 36 17 134 -3 166 -15 24 -13 25 32 22 62 -4 224 -117 225
-157 0 -24 19 -30 36 -13 7 7 15 2 24 -15 12 -22 11 -27 -6 -40 -22 -17 -50
-19 -59 -5 -4 7 -13 6 -27 -1 -17 -9 -18 -13 -7 -20 17 -11 132 0 140 14 11
15 -22 94 -53 128 -30 33 -39 83 -13 73 19 -8 19 3 -1 23 -11 12 -18 13 -27 4
-20 -20 -39 -15 -149 40 -10 5 -25 9 -34 9 -13 0 -14 3 -4 15 10 11 9 18 -3
30 -18 17 -26 18 -50 4z"/>
<path d="M10694 10621 c-57 -24 -21 -51 67 -51 59 0 141 -19 151 -34 4 -6 27
-12 50 -12 24 -1 48 -2 54 -3 6 -1 23 -12 38 -26 19 -18 22 -25 12 -25 -23 0
-20 -17 4 -23 11 -3 20 -12 20 -20 0 -8 23 -24 53 -36 45 -18 65 -21 128 -16
41 4 76 11 77 16 2 5 17 9 32 9 31 0 46 15 42 43 -2 10 3 17 12 17 9 0 16 7
16 15 0 23 -41 18 -47 -6 -3 -12 -11 -18 -19 -15 -8 3 -14 1 -14 -5 0 -6 -9
-8 -20 -4 -11 3 -30 -1 -44 -10 -16 -11 -26 -13 -31 -6 -10 17 -25 13 -18 -6
5 -11 3 -14 -6 -8 -7 4 -33 7 -58 7 -30 -1 -46 3 -50 13 -3 8 -12 15 -20 15
-20 0 -11 24 12 28 10 2 21 -2 26 -10 6 -9 9 -5 9 14 0 37 -63 85 -155 116
-58 20 -289 36 -321 23z"/>
<path d="M10808 9483 c17 -3 21 -9 17 -24 -5 -15 -2 -19 15 -19 11 0 23 -6 26
-13 2 -7 19 -14 37 -15 39 -3 60 -28 53 -64 -3 -17 0 -28 9 -32 10 -3 15 1 15
14 0 10 5 22 10 25 6 3 10 -4 10 -17 0 -39 12 -68 26 -68 10 0 13 11 10 39 -1
21 -6 43 -10 50 -4 6 -2 11 3 11 6 0 11 7 11 16 0 14 3 14 15 4 8 -7 15 -19
15 -26 0 -19 4 -18 64 15 37 20 58 26 69 20 9 -6 26 -5 42 1 15 6 31 8 36 4 5
-3 12 2 15 10 3 9 12 16 19 16 13 0 27 35 18 44 -3 2 -17 0 -32 -5 -38 -15
-389 -8 -421 8 -14 7 -41 12 -60 12 -24 -1 -28 -3 -12 -6z"/>
</g>
</svg>
