<?xml version="1.0" standalone="no"?>
<!DOCTYPE svg PUBLIC "-//W3C//DTD SVG 20010904//EN"
 "http://www.w3.org/TR/2001/REC-SVG-20010904/DTD/svg10.dtd">
<svg version="1.0" xmlns="http://www.w3.org/2000/svg"
 width="540.000000pt" height="888.000000pt" viewBox="0 0 540.000000 888.000000"
 preserveAspectRatio="xMidYMid meet">
<metadata>
Created by potrace 1.16, written by Peter Selinger 2001-2019
</metadata>
<g transform="translate(0.000000,888.000000) scale(0.100000,-0.100000)"
fill="#000000" stroke="none">
<path d="M5021 8868 c-1 -9 -11 -19 -23 -21 -18 -3 -16 -5 8 -6 27 -1 82 -30
59 -31 -14 -1 17 -20 33 -20 7 0 10 5 7 11 -5 6 10 9 44 8 27 -1 48 -6 45 -11
-3 -5 -20 -7 -37 -4 -27 5 -29 5 -9 -4 26 -11 27 -16 6 -24 -10 -4 -13 -2 -8
6 5 8 -6 9 -39 6 -34 -4 -47 -2 -51 9 -3 8 -11 11 -17 7 -9 -5 -7 -11 6 -20
10 -8 16 -21 13 -32 -3 -12 0 -19 9 -19 8 0 11 7 8 17 -3 11 1 20 10 24 18 6
45 -2 45 -15 0 -4 8 -6 18 -3 13 5 14 4 3 -4 -7 -5 -10 -15 -7 -21 4 -6 2 -11
-4 -11 -6 0 -8 -5 -5 -11 4 -6 -2 -13 -14 -16 -12 -3 -21 -12 -21 -21 0 -8 -3
-13 -6 -9 -3 3 -3 20 1 38 6 24 9 28 17 18 8 -11 9 -10 4 4 -3 9 -1 17 5 17 6
0 7 5 4 10 -12 19 -38 -21 -39 -58 -1 -26 3 -37 14 -38 8 0 25 -2 37 -2 19 -2
22 -7 20 -47 -1 -28 2 -45 9 -45 15 0 24 -48 10 -53 -6 -2 -8 -7 -4 -11 8 -10
49 16 44 29 -2 5 -9 9 -15 8 -15 -4 -14 2 4 38 9 16 13 34 10 39 -3 5 -1 11 5
15 5 3 10 -2 10 -12 0 -14 8 -19 34 -21 30 -2 34 0 29 18 -3 11 -1 20 4 20 9
0 11 -15 13 -75 1 -22 4 -26 10 -15 8 13 10 13 10 0 0 -12 2 -12 9 -1 6 9 11
10 15 2 4 -6 3 -11 -2 -11 -18 0 -21 -39 -3 -42 12 -3 10 -5 -7 -10 -12 -3
-20 -3 -17 2 3 4 -2 10 -10 13 -9 4 -13 18 -11 42 1 19 2 35 2 35 -1 0 -16 4
-34 10 -28 7 -33 6 -28 -5 3 -9 -3 -15 -17 -18 -13 -3 -6 -5 18 -7 22 -1 32
-4 23 -7 -10 -2 -18 -11 -18 -19 0 -8 -4 -14 -9 -14 -5 0 -8 -8 -7 -17 0 -10
-5 -17 -11 -15 -7 1 -13 -2 -13 -8 0 -5 7 -10 15 -10 18 0 18 -5 5 -31 -7 -13
-7 -19 0 -19 5 0 10 -7 10 -15 0 -8 5 -15 11 -15 5 0 7 5 3 11 -4 7 -1 10 7 7
8 -3 13 -15 11 -28 -1 -12 5 -28 14 -35 14 -9 14 -14 4 -20 -9 -5 -11 -4 -6 3
4 7 2 12 -4 12 -6 0 -22 12 -35 26 -19 21 -25 23 -25 10 0 -9 7 -16 16 -16 8
0 13 -4 10 -9 -3 -5 1 -14 9 -21 8 -7 15 -19 15 -26 0 -8 7 -14 15 -14 8 0 15
6 15 14 0 8 4 17 9 20 4 3 6 -5 4 -18 -3 -16 2 -28 17 -39 15 -11 18 -16 8
-20 -7 -3 -3 -6 10 -6 21 -1 22 -2 8 -17 -19 -18 -19 -20 -5 -46 6 -11 7 -18
2 -15 -5 3 -15 2 -23 -4 -12 -6 -12 -9 -2 -9 16 0 43 -25 36 -33 -3 -2 4 -7
16 -10 15 -4 20 -1 18 11 -2 10 -7 20 -13 24 -6 5 -4 8 5 8 13 0 13 1 0 10 -8
5 -10 10 -4 10 8 0 11 79 12 271 0 261 -1 271 -19 266 -11 -3 -17 -1 -13 4 3
5 11 9 18 9 9 0 13 25 14 90 l2 90 -105 0 c-77 0 -105 -3 -105 -12 0 -9 -4 -8
-10 2 -9 13 -10 13 -10 0 0 -10 -3 -11 -8 -4 -4 7 -33 12 -67 12 -56 1 -59 0
-40 -14 l20 -16 -20 4 c-11 2 -23 10 -27 18 -5 13 -7 12 -7 -2z"/>
<path d="M191 8483 c-1 -19 -4 -21 -33 -13 -18 5 -61 11 -95 13 l-63 5 0 -48
c0 -39 4 -52 22 -64 30 -21 38 -20 39 7 l0 22 9 -22 c5 -13 12 -23 14 -23 3 0
3 6 0 13 -3 9 6 13 28 14 27 2 29 0 13 -7 -19 -8 -19 -9 3 -9 12 -1 22 4 22
10 0 7 12 8 33 4 24 -5 28 -4 17 4 -13 9 -13 11 3 11 11 0 17 -8 17 -22 1 -22
1 -22 14 -5 14 18 14 18 19 0 4 -15 5 -15 6 -2 0 9 8 20 17 23 14 5 15 4 4 -9
-23 -28 -2 -27 25 2 15 15 25 23 21 17 -9 -17 31 -24 66 -12 22 8 26 13 16 19
-10 7 -10 9 0 9 7 0 15 -6 18 -14 3 -8 13 -12 26 -8 18 4 20 2 16 -16 -5 -18
-4 -19 13 -9 11 7 15 13 9 15 -6 2 -8 8 -4 13 3 5 0 9 -7 9 -9 0 -9 4 2 13 8
6 12 11 10 10 -2 -2 -10 2 -17 8 -8 7 -14 7 -19 -1 -3 -5 -18 -9 -33 -9 l-27
1 30 8 c34 9 22 12 -55 15 -55 3 -110 12 -118 19 -3 3 -11 1 -19 -5 -10 -9
-13 -8 -13 0 0 7 -4 10 -9 6 -5 -3 -12 3 -14 12 -4 14 -5 13 -6 -4z"/>
<path d="M880 8472 c24 -4 24 -5 5 -13 -15 -7 -12 -8 13 -4 19 3 32 0 32 -6 0
-6 9 -9 19 -6 13 3 18 0 16 -12 -1 -12 -13 -16 -46 -16 -24 0 -54 4 -66 8 -19
7 -23 5 -23 -12 0 -26 -15 -27 -29 -3 -7 13 -22 17 -60 16 -28 0 -51 3 -51 6
0 4 -13 7 -30 8 -28 1 -29 -1 -23 -31 8 -44 13 -46 14 -6 0 30 1 32 9 12 11
-28 20 -30 13 -3 -5 17 -3 18 20 7 20 -9 23 -14 11 -20 -8 -4 -14 -15 -14 -24
0 -12 9 -6 29 16 25 28 30 30 28 13 0 -11 -5 -18 -9 -16 -4 3 -8 1 -8 -5 0 -5
5 -13 10 -16 6 -3 10 -1 10 4 0 16 26 13 40 -3 6 -8 17 -13 24 -10 6 2 21 -5
33 -16 12 -11 30 -20 40 -20 13 0 15 -2 5 -9 -10 -6 -10 -10 3 -21 8 -7 15
-20 16 -29 0 -10 2 -11 6 -3 2 6 9 12 14 12 4 0 6 -7 3 -15 -5 -11 -2 -13 10
-9 9 3 13 11 9 18 -4 7 -1 6 9 -2 12 -10 18 -9 28 3 20 24 28 18 34 -27 4 -24
8 -56 10 -73 2 -16 5 -48 6 -70 1 -31 3 -35 9 -20 5 11 5 45 1 75 -4 30 -8 99
-9 153 -1 54 -6 108 -10 121 -11 28 -37 50 -51 41 -6 -4 -16 -3 -23 2 -7 5
-32 10 -57 10 -25 0 -34 -2 -20 -5z"/>
<path d="M3773 7291 c4 -17 0 -24 -21 -32 -19 -7 -23 -12 -13 -18 9 -6 1 -11
-23 -15 -20 -4 -36 -11 -36 -17 0 -6 -6 -7 -12 -2 -7 4 -21 6 -30 5 -11 -2
-18 3 -18 13 0 12 -5 15 -17 10 -10 -4 -37 -9 -60 -10 -23 -2 -51 -8 -62 -14
-29 -16 -51 -13 -51 7 0 14 -2 14 -9 3 -5 -8 -7 -21 -3 -29 3 -10 1 -13 -6 -8
-17 10 -52 -3 -52 -20 0 -8 -3 -14 -8 -14 -4 0 -9 -26 -10 -57 -2 -32 -7 -59
-12 -61 -5 -2 -7 -9 -4 -17 3 -7 1 -16 -5 -20 -6 -3 -11 0 -11 8 0 8 -7 32
-16 52 -12 29 -18 35 -25 24 -7 -11 -9 -12 -9 0 0 11 -3 11 -15 1 -27 -23 -46
9 -26 48 5 9 14 29 21 44 7 15 16 25 20 23 12 -7 17 -74 7 -78 -5 -1 3 -8 18
-15 25 -11 27 -11 20 5 -4 10 -8 24 -8 31 0 6 -4 12 -9 12 -4 0 -8 16 -8 36 0
21 -4 33 -10 29 -5 -3 -10 -2 -10 4 0 5 6 12 13 14 7 4 6 6 -4 6 -9 1 -19 -6
-23 -14 -8 -22 -36 -18 -36 5 0 11 -7 20 -15 20 -8 0 -15 5 -15 10 0 19 -15
10 -27 -15 -6 -14 -7 -23 -2 -19 21 13 6 -18 -23 -48 -19 -19 -41 -32 -53 -31
-11 2 -14 0 -7 -3 6 -3 12 -12 12 -21 0 -12 -2 -12 -16 1 -8 9 -18 16 -22 16
-3 0 -1 -5 6 -12 18 -18 15 -46 -8 -70 -11 -12 -21 -37 -22 -57 l-1 -36 -4 33
c-3 18 0 39 6 46 12 14 5 26 -16 26 -8 0 -11 -4 -8 -10 3 -5 1 -10 -5 -10 -7
0 -9 7 -6 16 3 9 6 20 6 25 0 6 5 7 10 4 6 -3 10 0 10 9 0 8 6 17 13 19 6 3 3
6 -9 6 -11 1 -26 7 -33 14 -10 10 -11 9 -6 -6 9 -22 -3 -70 -15 -62 -5 3 -7 0
-4 -8 8 -21 -22 -46 -48 -39 -26 6 -58 32 -59 47 0 14 -59 59 -59 45 0 -6 7
-13 15 -16 8 -4 15 -13 15 -21 0 -8 -5 -11 -12 -7 -8 5 -9 2 -5 -10 5 -14 3
-17 -8 -12 -17 6 -20 -5 -6 -20 5 -5 12 -28 16 -52 6 -36 4 -41 -9 -36 -9 3
-16 2 -16 -4 0 -5 9 -12 20 -15 15 -4 20 0 20 13 0 22 19 38 21 18 1 -7 0 -17
-1 -23 -1 -5 -3 -15 -3 -21 0 -6 -10 -10 -21 -9 -12 1 -24 -3 -28 -9 -11 -15
-29 14 -22 35 3 12 -3 18 -25 21 -24 4 -28 2 -20 -8 6 -7 8 -23 4 -35 -6 -17
-4 -21 8 -16 19 7 33 -23 15 -35 -13 -7 -35 -12 -50 -9 -5 0 -8 -4 -8 -9 0
-17 -18 -11 -23 8 -4 13 -5 12 -6 -5 -2 -33 -21 -39 -21 -6 -1 25 -2 26 -14
11 -7 -10 -18 -18 -25 -18 -15 0 -14 37 2 43 6 2 9 7 6 11 -4 4 -36 -9 -73
-28 -44 -23 -77 -33 -99 -32 -57 5 -71 -7 -106 -89 -34 -82 -44 -142 -28 -163
8 -10 7 -16 -4 -23 -10 -6 -11 -9 -1 -9 10 0 10 -5 2 -20 -14 -26 -35 -25 -56
3 l-16 22 5 -22 c4 -16 1 -23 -10 -23 -10 0 -13 6 -8 23 5 17 4 18 -4 7 -8
-12 -12 -9 -20 13 -6 15 -12 27 -14 27 -3 0 -1 -63 3 -67 1 -2 2 -13 2 -25 1
-55 -28 -73 -68 -43 -32 24 -45 17 -18 -12 23 -25 24 -27 7 -37 -10 -5 -21
-14 -25 -20 -5 -7 -8 -3 -8 8 0 11 -3 16 -6 13 -4 -3 -15 -2 -25 4 -17 9 -18
6 -13 -36 5 -43 4 -45 -21 -45 -15 0 -24 -4 -20 -10 3 -5 2 -10 -4 -10 -6 0
-8 -6 -5 -14 3 -9 -3 -17 -15 -21 -23 -7 -28 -21 -8 -28 23 -7 -5 -61 -41 -76
-17 -8 -32 -21 -32 -28 0 -8 -5 -11 -10 -8 -6 4 -10 -10 -10 -36 0 -23 3 -39
7 -35 4 4 13 -10 19 -31 l12 -38 1 36 c1 36 14 50 39 42 6 -3 12 -11 12 -18 0
-7 6 -16 13 -19 9 -5 9 -7 -1 -12 -10 -5 -10 -9 -1 -20 14 -17 4 -80 -15 -87
-8 -3 -18 5 -25 19 -15 34 -14 37 12 31 21 -6 21 -5 3 8 -16 12 -17 17 -6 30
10 12 10 15 -4 15 -10 0 -15 -4 -11 -9 3 -5 1 -13 -5 -16 -15 -9 -8 -95 8 -95
6 0 12 -9 12 -20 0 -17 3 -19 19 -10 29 15 31 13 31 -25 0 -19 4 -35 10 -35 5
0 17 -16 26 -35 17 -36 28 -43 39 -25 3 6 -1 13 -9 16 -20 8 -21 30 -2 37 9 4
17 -8 26 -36 l12 -41 29 34 c16 19 26 27 23 18 -3 -9 -2 -23 2 -30 8 -12 9
-25 13 -94 1 -21 62 -94 78 -94 23 0 54 -95 78 -242 14 -86 33 -171 42 -189 8
-17 35 -43 59 -57 45 -27 50 -37 59 -118 3 -27 8 -57 11 -66 11 -38 12 -58 2
-58 -5 0 -8 6 -5 14 3 8 0 17 -8 20 -16 6 -9 -23 9 -39 15 -13 17 -65 2 -65
-6 0 -4 -5 4 -10 11 -7 11 -10 2 -10 -10 0 -10 -5 -1 -22 11 -20 12 -41 6
-196 -1 -35 1 -66 5 -69 12 -6 10 -101 -2 -124 -8 -14 -17 -18 -38 -13 -18 4
-23 3 -14 -4 10 -6 12 -25 8 -68 -3 -32 -8 -108 -11 -169 -8 -157 -14 -198
-28 -207 -9 -6 -9 -8 2 -8 11 0 11 -4 -2 -18 -10 -10 -15 -21 -12 -24 3 -3 -2
-21 -10 -41 -14 -33 -19 -37 -53 -38 -20 0 -48 -2 -62 -4 -14 -2 -56 -6 -94
-9 -52 -4 -79 -12 -107 -32 -45 -31 -46 -34 -45 -104 1 -53 35 -145 60 -162 8
-5 7 -8 -1 -8 -7 0 -16 6 -20 14 -6 11 -20 13 -51 9 -36 -5 -49 -13 -75 -48
-35 -47 -109 -85 -162 -83 -50 2 -74 -11 -101 -54 -35 -56 -25 -68 19 -23 21
22 44 40 52 41 14 2 -36 -49 -113 -115 -51 -44 -120 -86 -154 -95 -16 -3 -28
-13 -28 -21 0 -8 -8 -15 -17 -15 -15 0 -16 2 -3 10 30 19 -95 -3 -140 -24 -54
-27 -108 -94 -134 -168 -22 -62 -45 -97 -66 -98 -8 0 -35 -12 -59 -26 -26 -14
-67 -27 -100 -30 -76 -7 -153 -46 -211 -107 -101 -107 -122 -134 -163 -198
-22 -37 -53 -75 -68 -85 -16 -10 -26 -20 -24 -23 3 -2 -3 -9 -12 -16 -12 -9
-16 -27 -14 -76 1 -72 2 -70 -57 -121 l-42 -38 64 0 c43 0 85 -8 130 -25 88
-33 226 -103 226 -114 0 -5 -42 12 -93 38 -50 25 -108 52 -127 58 -49 17 -161
32 -193 26 -32 -6 -67 -47 -67 -78 0 -12 -12 -32 -26 -46 -14 -13 -51 -62 -82
-109 -31 -47 -64 -94 -73 -105 -9 -11 -25 -36 -35 -55 -11 -19 -29 -49 -41
-67 -21 -29 -23 -42 -23 -176 l0 -146 58 -11 c68 -14 113 -28 92 -29 -8 0 -45
6 -82 13 l-68 13 0 -427 c0 -401 1 -428 18 -443 10 -10 21 -17 25 -17 6 0 151
-69 373 -176 39 -19 80 -44 89 -54 26 -29 10 -25 -54 14 -31 18 -96 53 -146
76 -50 23 -136 64 -193 91 -56 27 -104 49 -107 49 -3 0 -5 -70 -5 -155 l0
-155 287 0 286 0 -24 27 c-26 28 -8 22 27 -9 20 -17 80 -18 1820 -16 l1799 3
50 24 c28 12 75 34 105 48 133 62 273 135 300 159 8 6 50 37 93 68 81 58 96
54 17 -5 -128 -96 -256 -168 -460 -260 l-85 -39 593 0 592 0 0 455 c0 363 -3
457 -13 461 -14 5 -21 44 -7 44 5 0 10 -8 12 -18 2 -9 4 9 4 40 0 32 -3 52 -7
46 -4 -7 -9 -4 -12 8 -4 16 -5 17 -6 2 0 -10 -7 -18 -14 -18 -21 0 -28 12 -15
27 9 11 7 15 -10 20 -23 6 -28 18 -13 27 5 4 11 0 14 -6 2 -7 7 -11 10 -8 4 3
0 18 -7 32 -12 23 -12 27 0 32 16 6 3 52 -14 49 -6 -2 -14 7 -17 18 -5 16 -10
18 -21 8 -11 -9 -19 -6 -39 12 -30 28 -58 86 -48 102 3 6 1 7 -5 3 -7 -4 -12
-3 -12 2 0 6 -8 8 -18 5 -22 -5 -55 28 -34 34 6 3 12 13 12 23 0 27 12 31 50
17 26 -9 34 -9 37 1 8 21 23 13 23 -13 0 -19 4 -23 18 -18 14 5 15 3 5 -8 -7
-7 -13 -20 -13 -29 0 -13 1 -13 10 0 8 13 10 12 10 -2 0 -10 5 -18 11 -18 5 0
7 5 4 10 -8 13 -2 13 30 -2 34 -15 45 0 38 51 l-4 36 20 -24 21 -23 0 467 0
467 -25 -6 c-15 -4 -25 -2 -25 5 0 6 -7 3 -16 -6 -10 -9 -25 -14 -35 -12 -12
3 -16 0 -12 -9 3 -8 -1 -14 -9 -14 -8 0 -34 -14 -56 -30 -23 -17 -46 -30 -52
-30 -5 0 -10 -4 -10 -10 0 -5 -3 -9 -7 -8 -12 2 -46 -14 -61 -29 -7 -7 -23
-20 -35 -28 -17 -12 -19 -17 -9 -24 11 -7 10 -9 -3 -14 -9 -4 -13 -3 -10 3 3
6 2 10 -3 10 -5 0 -12 -9 -15 -20 -3 -11 -2 -18 3 -15 4 3 11 -2 14 -11 3 -9
2 -12 -5 -8 -14 8 -8 -58 6 -69 7 -6 6 -10 -2 -13 -7 -3 -9 -12 -6 -20 3 -10
-2 -14 -18 -14 -19 0 -21 -2 -9 -10 13 -8 13 -10 -1 -10 -25 0 -27 8 -13 68
19 81 19 189 1 242 -9 25 -34 86 -57 135 -52 112 -76 176 -90 240 -6 28 -17
64 -25 81 -32 68 -88 202 -106 253 -31 89 -79 158 -162 231 -96 86 -142 102
-198 71 -20 -12 -45 -21 -55 -20 -13 0 -9 4 11 11 45 17 72 48 41 48 -24 0
-46 29 -45 58 1 27 1 27 9 -3 l7 -30 7 30 c4 17 10 37 13 45 5 14 13 77 16
127 0 12 5 19 9 17 5 -3 11 2 15 11 3 10 0 20 -6 25 -9 5 -8 9 4 14 9 3 21 4
26 0 5 -3 9 6 9 19 0 14 14 55 30 92 17 37 30 78 30 91 0 18 4 22 18 17 14 -5
15 -4 6 8 -6 8 -14 21 -16 29 -3 8 -9 -3 -12 -25 -7 -38 -21 -75 -52 -136 -8
-14 -11 -29 -7 -33 3 -3 1 -6 -5 -6 -7 0 -12 -5 -12 -11 0 -7 -8 -19 -18 -28
-10 -9 -28 -33 -41 -54 -12 -20 -27 -35 -32 -31 -9 5 -13 -8 -9 -40 1 -10 -3
-15 -8 -12 -6 3 -20 -14 -32 -39 -20 -41 -31 -49 -67 -48 -7 1 -10 -4 -7 -9 4
-6 -2 -8 -15 -3 -11 3 -21 2 -21 -3 0 -5 9 -12 20 -15 11 -3 20 -12 20 -21 0
-13 -5 -14 -26 -6 -19 7 -31 7 -40 -1 -11 -9 -14 -8 -14 4 0 8 -9 17 -20 20
-11 3 -20 1 -20 -5 0 -5 -4 -6 -10 -3 -5 3 -9 -9 -8 -30 2 -43 -5 -51 -25 -31
-13 14 -16 14 -22 -1 -3 -10 -9 -13 -13 -8 -4 6 -15 17 -25 25 -17 13 -19 12
-15 -9 4 -30 -30 -39 -40 -10 -7 19 -8 19 -24 -1 -16 -17 -16 -21 -2 -35 9 -8
12 -15 7 -15 -4 0 -1 -5 7 -11 11 -7 6 -8 -20 -3 -42 8 -35 1 -60 54 l-21 45
3 -34 c2 -20 -2 -36 -9 -38 -8 -3 -13 4 -13 19 0 13 -7 31 -14 41 -13 17 -14
17 -20 0 -4 -10 -2 -19 3 -21 6 -2 11 -12 11 -22 0 -11 7 -23 16 -28 14 -8 14
-10 -1 -25 -18 -19 -40 -23 -30 -6 4 6 0 9 -11 7 -11 -2 -18 2 -17 9 2 6 -4
30 -11 51 -8 22 -12 43 -9 45 3 3 -4 3 -16 0 -17 -4 -21 -1 -21 18 0 12 -3 19
-7 16 -3 -4 -6 -20 -5 -37 0 -24 -4 -30 -19 -30 -11 0 -18 4 -15 9 3 5 0 11
-8 14 -8 3 -16 -2 -19 -14 -3 -10 -11 -19 -19 -18 -10 0 -10 2 0 6 6 2 12 9
12 14 0 6 -6 7 -12 3 -10 -6 -10 -5 -1 8 7 8 10 17 7 20 -8 9 -44 -3 -44 -14
0 -5 -4 -6 -10 -3 -5 3 -10 19 -10 36 0 16 -4 29 -9 29 -5 0 -12 8 -14 18 -4
13 -5 11 -6 -5 0 -13 4 -23 9 -23 6 0 10 -11 10 -24 0 -14 4 -36 9 -49 8 -19
6 -27 -5 -31 -15 -6 -17 0 -14 58 1 24 -2 36 -9 32 -5 -4 -8 -14 -5 -24 5 -15
5 -15 -6 1 -6 9 -8 22 -5 27 3 6 -1 7 -9 4 -9 -3 -16 -10 -16 -15 0 -5 -4 -9
-8 -9 -5 0 -8 14 -7 30 1 17 -2 33 -7 36 -4 3 -8 19 -8 37 0 29 -1 30 -14 12
-8 -11 -12 -24 -9 -29 4 -5 1 -6 -5 -2 -9 5 -8 51 3 84 6 18 -22 15 -29 -4 -3
-8 -10 -13 -15 -9 -6 3 -15 -4 -21 -15 -17 -31 -30 -24 -20 11 5 18 7 36 3 42
-4 6 0 8 10 4 10 -3 17 -2 17 3 0 18 -40 11 -41 -7 0 -10 -3 -13 -5 -6 -3 7
-16 0 -34 -19 -25 -26 -32 -29 -45 -18 -8 7 -15 21 -15 31 0 26 -21 35 -36 15
-8 -11 -14 -13 -19 -7 -3 6 -11 11 -16 11 -6 0 -8 -4 -5 -9 3 -4 -1 -16 -8
-26 -13 -17 -14 -16 -22 16 -4 19 -6 47 -5 63 2 24 0 28 -14 22 -22 -8 -45 10
-45 35 0 11 -6 19 -12 19 -10 0 -10 2 -1 8 25 16 -23 112 -57 112 -5 0 -1 -9
10 -20 11 -11 20 -29 20 -39 0 -11 6 -22 13 -24 6 -3 2 -6 -10 -6 -16 -1 -23
5 -23 18 0 10 -7 22 -16 25 -13 5 -15 1 -10 -21 5 -24 5 -25 -5 -10 -6 11 -9
30 -6 43 3 16 -4 32 -19 49 -13 14 -25 39 -26 55 -1 17 -6 30 -11 30 -4 0 -6
3 -4 8 3 4 -1 13 -9 19 -8 8 -15 9 -19 3 -3 -6 -1 -10 4 -10 6 0 11 -7 11 -16
0 -12 -8 -8 -30 15 -17 17 -34 31 -39 31 -6 0 -13 4 -16 10 -4 6 1 7 12 3 15
-6 16 -5 3 9 -8 9 -17 14 -19 12 -8 -7 -41 17 -36 27 4 5 2 9 -3 9 -14 0 -24
28 -28 77 -2 24 -9 53 -16 65 -6 13 -13 46 -15 73 -1 28 -7 70 -13 94 -6 24
-9 50 -6 58 3 7 1 13 -4 13 -6 0 -10 5 -10 11 0 5 3 8 8 6 6 -4 8 57 2 73 -7
22 -6 70 3 70 6 0 2 6 -8 14 -15 10 -20 29 -23 82 -8 148 -8 220 -1 241 5 13
4 23 -3 25 -7 3 -8 9 -3 18 5 8 9 26 9 40 1 14 4 30 9 37 4 6 3 14 -3 18 -12
7 -14 55 -2 55 4 0 8 11 8 25 1 14 -2 22 -7 19 -13 -8 -9 99 5 115 9 12 8 13
-3 6 -11 -7 -13 0 -8 35 3 24 11 47 19 51 10 7 9 9 -4 9 -10 0 -18 5 -18 10 0
6 7 10 15 10 9 0 12 6 9 15 -4 8 -10 12 -15 9 -5 -3 -6 2 -3 10 3 9 10 13 15
10 5 -3 6 2 3 11 -4 8 0 22 7 31 7 9 14 21 15 28 5 27 24 66 34 66 5 0 10 7
10 16 0 9 5 12 12 8 7 -4 8 -3 4 4 -10 17 12 52 28 46 8 -3 17 -1 21 5 4 7 0
8 -11 4 -13 -5 -15 -3 -9 7 5 8 4 11 -3 6 -6 -3 -13 -2 -17 4 -3 5 -1 10 5 10
13 0 60 49 60 61 0 5 5 9 11 9 6 0 9 -9 6 -20 -3 -11 -1 -20 4 -20 5 0 9 12 9
26 0 19 4 25 15 20 9 -3 15 0 15 8 0 8 9 16 20 19 12 3 20 0 20 -6 -1 -20 -28
-49 -39 -42 -6 3 -11 1 -11 -4 0 -6 4 -11 9 -11 17 0 79 40 84 55 3 7 14 11
24 9 12 -3 25 6 41 31 12 19 22 39 22 44 0 5 6 11 14 14 7 3 13 0 13 -6 0 -7
1 -21 2 -32 1 -19 2 -19 12 -2 5 9 8 21 5 26 -3 5 1 14 9 21 8 7 13 16 10 20
-10 16 30 21 41 5 7 -9 14 -12 15 -7 6 15 49 -5 49 -23 0 -8 8 -15 18 -14 10
0 12 3 5 6 -8 3 -11 14 -7 30 5 17 3 24 -3 20 -6 -4 -13 -1 -16 7 -3 8 0 13 6
12 23 -3 36 -17 31 -30 -7 -18 14 -30 47 -28 15 1 33 -4 41 -11 7 -7 21 -16
31 -20 25 -10 22 17 -5 36 l-23 16 22 -6 c12 -3 25 -15 29 -27 7 -21 7 -21 15
-1 7 19 8 19 8 -2 1 -20 41 -55 41 -36 0 4 5 1 10 -7 8 -13 10 -12 10 3 0 9
-5 17 -11 17 -14 0 -41 28 -32 33 5 3 23 2 41 0 24 -4 34 -12 38 -30 5 -16 10
-21 17 -14 6 6 26 3 59 -10 57 -22 141 -25 160 -6 7 8 19 12 28 10 14 -4 115
65 107 73 -2 2 -26 -5 -54 -15 -50 -18 -50 -18 -64 3 -8 12 -19 35 -26 51 -6
17 -12 24 -12 17 -1 -7 -5 -10 -11 -7 -12 8 -12 16 0 35 8 12 13 11 33 -8 13
-13 28 -22 33 -20 19 5 54 -14 47 -25 -5 -9 -3 -9 8 0 12 10 25 9 62 -2 26 -8
47 -12 47 -9 0 3 9 0 20 -6 15 -8 20 -8 20 2 0 8 3 9 8 3 7 -11 12 -12 69 -21
19 -3 45 -8 57 -10 11 -2 36 -7 54 -10 18 -3 34 -9 36 -13 6 -9 159 -7 174 3
7 4 10 11 7 16 -6 9 41 -1 108 -25 26 -9 47 -21 47 -26 0 -4 7 -6 15 -3 10 4
14 14 11 28 -3 12 0 9 6 -6 7 -16 15 -28 20 -28 4 0 8 -7 8 -16 0 -8 4 -13 9
-10 10 6 31 -45 31 -75 0 -13 5 -17 18 -12 14 6 15 4 5 -9 -7 -8 -9 -18 -5
-23 4 -4 -3 -5 -16 -2 -12 3 -20 1 -16 -4 3 -5 11 -9 19 -9 7 0 15 -7 19 -15
3 -8 1 -15 -4 -15 -6 0 -10 -4 -10 -10 0 -5 9 -10 20 -10 25 0 26 -18 3 -37
-10 -8 -12 -11 -4 -7 11 5 13 2 9 -14 -8 -29 0 -28 12 1 8 20 9 19 9 -10 1
-24 -3 -31 -13 -27 -8 3 -17 1 -20 -5 -4 -6 6 -8 24 -6 18 3 28 0 25 -5 -4 -6
-15 -10 -26 -10 -12 0 -17 -4 -13 -11 4 -7 -1 -7 -16 1 -18 10 -24 9 -31 -1
-5 -8 -9 -17 -9 -20 0 -11 -50 -29 -50 -18 0 5 10 14 23 19 13 5 16 9 7 9 -9
1 -20 -3 -25 -7 -6 -5 -23 -14 -40 -20 -26 -11 -28 -11 -12 2 17 13 16 14 -3
19 -11 3 -20 2 -20 -3 0 -4 -7 -11 -16 -14 -12 -4 -15 -2 -10 9 4 11 -1 14
-19 13 -14 -1 -24 -8 -22 -15 1 -6 -1 -11 -4 -10 -3 1 -14 -5 -24 -13 -11 -8
-16 -10 -13 -5 4 6 0 19 -8 30 -14 18 -14 18 -14 -4 0 -24 -15 -58 -37 -79
-18 -18 -17 -32 3 -32 8 0 12 -4 9 -10 -3 -5 -15 -10 -25 -10 -20 0 -53 -38
-44 -52 3 -4 -2 -11 -11 -14 -13 -6 -14 -8 -3 -15 10 -7 9 -9 -3 -9 -18 0 -30
-20 -35 -59 -2 -13 -9 -28 -16 -32 -7 -5 -9 -9 -3 -9 5 0 4 -5 -3 -12 -14 -14
-16 -117 -2 -138 8 -12 10 -10 10 10 0 20 2 22 10 10 8 -12 10 -10 10 10 0 57
86 140 149 145 46 3 130 -9 186 -27 43 -13 83 -44 72 -54 -4 -4 -16 1 -27 11
-11 10 -20 13 -20 7 0 -8 -7 -9 -22 -3 -13 5 -54 6 -93 3 -38 -3 -85 -6 -102
-6 -18 -1 -33 -4 -33 -8 0 -5 -5 -8 -11 -8 -6 0 -26 -16 -44 -36 -27 -28 -32
-39 -22 -49 10 -10 14 -9 21 9 8 21 8 21 16 1 5 -11 9 -26 9 -32 1 -19 -40
-16 -56 5 -8 9 -12 11 -8 5 3 -7 2 -13 -4 -13 -6 0 -8 -6 -6 -12 4 -9 23 -12
61 -10 30 2 67 -1 82 -7 42 -17 92 -23 92 -11 0 6 9 21 21 33 15 17 20 32 17
65 -4 49 9 54 57 22 17 -11 26 -20 21 -20 -5 0 -2 -8 5 -17 12 -15 12 -16 -1
-8 -13 8 -13 6 -2 -7 10 -13 11 -22 3 -37 -13 -24 -14 -42 -1 -21 5 8 12 11
16 7 20 -20 -51 -48 -91 -37 -5 1 -24 -1 -42 -5 -29 -7 -30 -8 -15 -25 14 -17
18 -18 45 -4 17 9 26 11 22 4 -4 -7 0 -10 11 -8 11 2 22 10 26 18 5 12 7 10 8
-5 l1 -20 16 20 c15 19 15 19 9 -5 -16 -60 -16 -63 -1 -50 8 7 15 20 16 29 0
12 2 11 9 -4 5 -11 9 -15 9 -8 1 6 9 14 19 16 15 4 15 5 1 6 -9 0 -20 8 -23
17 -5 13 -3 14 6 7 7 -6 23 -13 36 -16 17 -4 21 -2 13 7 -6 7 -6 17 -1 26 5 9
5 19 -1 26 -7 9 -6 12 3 10 25 -4 46 -21 50 -41 3 -11 8 7 13 39 5 40 4 65 -4
78 -6 10 -11 21 -11 25 0 5 4 2 8 -5 6 -8 15 2 31 33 12 24 26 47 32 50 5 4 7
11 3 16 -3 5 -1 16 5 22 14 17 5 139 -13 180 -10 21 2 124 15 133 5 3 7 9 4
14 -3 4 2 13 10 20 19 16 45 68 45 92 0 10 4 18 8 18 5 0 9 20 10 44 0 25 4
51 8 58 12 19 14 39 3 32 -5 -3 -9 1 -9 8 0 7 -3 23 -6 36 -5 17 -2 22 14 22
11 0 23 -6 25 -12 6 -14 11 25 7 55 -1 16 3 18 30 12 18 -4 38 -8 44 -9 29 -6
63 -20 79 -34 19 -17 22 -10 7 19 -6 11 -7 18 -3 17 4 -2 9 1 10 6 2 14 26 26
52 26 17 0 22 4 17 15 -4 12 -2 13 13 5 16 -8 18 -7 14 10 -4 15 -1 19 10 15
25 -10 50 24 43 59 -4 17 -10 32 -15 34 -12 4 -2 43 18 66 9 11 11 16 4 12 -7
-4 -17 2 -23 14 -6 11 -15 18 -20 15 -5 -3 -18 0 -30 7 -16 10 -19 19 -14 44
4 20 1 35 -7 39 -8 6 -10 4 -4 -5 6 -10 4 -12 -8 -7 -14 5 -16 2 -11 -18 8
-31 0 -31 -35 -2 l-28 22 46 17 46 17 -55 0 c-51 -1 -160 33 -160 50 0 3 18 6
39 6 22 1 38 -2 35 -6 -2 -4 0 -10 6 -14 5 -3 10 0 11 7 0 7 5 3 11 -9 6 -12
19 -21 29 -20 25 2 24 11 -3 30 -22 15 -22 16 -3 17 11 1 -5 9 -35 19 l-55 18
54 17 c65 19 98 20 103 4 3 -7 19 -13 37 -14 25 -1 31 2 27 13 -3 8 -6 17 -6
20 0 3 -8 -1 -17 -8 -9 -8 -14 -9 -10 -2 4 6 1 14 -5 16 -7 3 -3 6 10 6 25 1
30 16 7 25 -8 3 -15 1 -15 -5 0 -5 -11 -7 -25 -3 -17 4 -25 2 -25 -7 0 -7 -2
-10 -5 -7 -10 10 7 38 19 31 6 -4 5 1 -3 11 -8 9 -20 15 -28 12 -7 -3 -13 -1
-13 5 0 7 10 9 23 5 19 -4 26 0 35 18 10 23 7 36 -10 36 -4 0 -8 -9 -8 -20 0
-17 -3 -18 -13 -8 -16 15 -18 38 -3 35 6 -1 11 12 11 28 0 17 8 38 18 48 18
18 24 73 6 62 -6 -4 -13 2 -16 14 -7 26 -20 27 -26 4 -3 -10 -4 2 -4 27 2 42
0 45 -42 69 -24 13 -41 18 -36 11 6 -10 3 -12 -13 -8 -22 6 -39 -16 -22 -27 6
-4 10 -1 10 4 0 6 9 2 20 -9 22 -22 26 -45 8 -56 -7 -5 -9 -2 -5 9 3 9 -1 18
-9 21 -24 9 -27 8 -22 -19 6 -29 -7 -28 -39 2 -22 21 -35 96 -20 120 4 6 9 35
11 65 l5 53 -15 -60 c-8 -33 -20 -63 -27 -67 -29 -19 -35 -7 -33 68 1 53 -3
78 -11 81 -7 3 -10 9 -7 14 3 5 -1 9 -8 9 -10 0 -10 2 1 9 8 5 9 11 3 15 -6 3
-13 2 -17 -4 -7 -12 12 -50 26 -50 11 0 -7 -40 -25 -53 -7 -6 -4 -7 7 -3 14 4
17 -1 16 -32 -1 -23 -3 -29 -6 -14 -2 12 -8 20 -13 17 -5 -3 -16 3 -26 12 -17
17 -17 16 -10 -12 7 -29 7 -29 -8 -10 -15 20 -15 20 -16 -2 0 -16 6 -23 19
-23 11 0 23 -5 27 -12 5 -8 2 -9 -9 -5 -10 3 -17 2 -17 -4 0 -6 -4 -7 -10 -4
-5 3 -10 -1 -10 -9 0 -10 -6 -13 -17 -9 -11 4 -12 8 -5 11 14 4 16 52 2 52 -5
0 -10 7 -10 15 0 8 -4 15 -10 15 -5 0 -10 7 -10 15 0 8 7 15 15 15 10 0 6 8
-10 25 -28 27 -32 45 -11 45 8 0 14 10 14 24 0 21 -4 23 -27 17 -30 -8 -61 -3
-61 10 0 5 9 9 20 9 13 0 18 5 14 14 -3 9 -12 12 -21 9 -13 -5 -15 -1 -11 20
3 15 1 27 -4 27 -5 0 -7 4 -4 8 2 4 -7 13 -22 19 -81 36 -208 45 -264 19 -48
-21 -88 -19 -88 6 0 13 -5 18 -14 15 -8 -3 -16 -2 -18 3 -2 5 -10 10 -18 12
-21 5 -41 25 -38 40 2 10 -11 13 -49 11 -57 -2 -61 0 -38 24 14 14 14 16 -1
28 -10 7 -26 10 -37 7 -14 -4 -15 -7 -6 -13 8 -4 10 -11 7 -14 -11 -11 -28 5
-28 25 0 26 -73 54 -146 55 -33 1 -66 5 -74 10 -10 6 -12 3 -7 -14z m844
-2139 c13 -8 26 -12 30 -9 7 8 43 -11 43 -23 0 -5 -8 -7 -17 -4 -10 3 -7 -2 7
-10 14 -8 21 -16 15 -16 -5 0 -3 -4 4 -9 12 -8 11 -13 -10 -30 -29 -24 -52
-26 -69 -6 -7 8 -18 15 -26 15 -7 0 -33 6 -56 14 -24 7 -76 19 -115 26 -48 8
-73 16 -73 25 0 9 8 11 22 7 14 -3 19 -1 14 6 -4 7 11 14 46 19 29 4 56 6 61
5 4 -1 7 1 7 6 0 12 93 1 117 -16z m-2118 -987 c5 2 7 -18 5 -46 -2 -40 0 -50
11 -45 9 3 12 0 8 -10 -3 -8 1 -14 9 -14 8 0 15 -7 15 -15 0 -8 -4 -12 -8 -9
-16 10 -15 -23 2 -47 10 -14 16 -29 12 -33 -3 -3 -1 -6 6 -6 8 0 10 -7 6 -21
-5 -13 -3 -19 3 -15 5 3 13 -11 16 -32 9 -49 27 -93 35 -87 4 2 16 -15 26 -38
22 -49 45 -76 46 -55 0 7 5 0 11 -15 7 -19 15 -26 25 -23 9 4 13 1 11 -6 -3
-7 9 -22 26 -34 17 -11 30 -26 28 -33 -1 -7 2 -10 7 -7 5 3 12 -2 15 -11 6
-15 8 -15 17 -3 7 11 8 7 3 -13 -5 -21 -3 -26 9 -22 8 4 17 -1 21 -10 3 -9 10
-13 16 -10 5 3 10 -1 10 -10 0 -19 25 -47 34 -38 3 4 6 -2 6 -11 0 -12 5 -16
14 -13 11 4 13 -1 10 -21 -3 -15 -2 -23 2 -20 4 4 16 2 28 -4 11 -7 23 -12 26
-13 11 0 48 -44 43 -49 -4 -3 1 -6 10 -6 9 0 23 -16 33 -35 9 -19 19 -34 22
-33 18 3 42 -16 42 -35 0 -11 3 -17 6 -14 8 8 44 -31 44 -47 0 -6 -5 -4 -10 4
-5 8 -10 10 -10 5 0 -13 21 -35 33 -35 4 0 5 6 1 13 -4 7 -3 9 2 4 5 -5 10
-13 10 -18 1 -5 2 -13 3 -19 0 -5 8 -10 16 -10 13 0 20 -19 16 -43 -1 -5 8 -6
19 -2 14 5 20 2 20 -9 0 -9 4 -16 10 -16 5 0 9 -6 7 -12 -1 -7 4 -12 11 -10
13 2 29 -8 68 -47 14 -14 24 -19 24 -11 0 8 7 5 18 -7 18 -21 65 -38 96 -34
12 2 16 -1 11 -9 -4 -7 -2 -16 5 -20 14 -9 52 -1 45 9 -2 4 2 8 10 8 8 0 12
-4 9 -9 -3 -4 0 -8 5 -8 6 0 11 4 11 9 0 5 10 7 22 3 14 -3 19 -1 14 6 -3 6
-1 14 5 17 5 4 8 13 5 21 -3 8 -3 14 0 14 2 0 9 -12 14 -26 8 -20 13 -24 24
-15 7 6 15 8 18 5 3 -3 5 1 5 10 -1 8 3 15 8 15 13 1 14 -20 2 -36 -6 -8 -6
-13 1 -13 14 0 23 -40 9 -41 -9 0 -9 -2 -1 -5 22 -9 -9 -52 -52 -74 -38 -18
-129 -42 -136 -34 -6 5 -91 15 -148 16 -30 1 -58 7 -62 12 -4 6 -8 0 -8 -14 0
-14 -4 -20 -8 -14 -4 6 -41 23 -82 39 -41 16 -78 32 -81 37 -3 6 -10 9 -15 9
-13 -1 -77 20 -90 30 -6 5 -14 6 -17 2 -4 -3 -7 -1 -7 5 0 7 -7 12 -15 12 -9
0 -18 7 -21 15 -4 8 -13 15 -20 15 -15 0 -59 26 -83 48 -7 7 -20 11 -28 8 -8
-3 -12 -2 -9 3 3 5 -5 16 -18 24 -13 9 -29 22 -37 29 -8 7 -28 22 -45 33 -30
19 -71 51 -137 107 -18 15 -36 28 -40 28 -13 0 -37 27 -38 42 -1 7 -5 2 -9
-12 l-8 -25 -1 26 c-1 27 -33 64 -44 52 -4 -3 -7 -1 -7 6 0 14 -65 81 -78 81
-5 0 -16 8 -23 18 -11 14 -11 15 1 5 8 -7 21 -13 30 -13 10 0 11 3 3 8 -6 4
-14 19 -18 34 -4 14 -20 38 -36 52 -16 14 -29 34 -29 44 0 14 -2 15 -10 2 -8
-12 -10 -12 -16 3 -3 9 -9 15 -13 13 -4 -3 -7 13 -8 35 -1 21 3 39 8 39 6 0 7
5 4 10 -3 6 -1 10 5 10 6 0 9 4 6 8 -6 10 10 37 24 38 5 1 16 2 23 3 9 1 9 3
0 9 -10 6 -9 12 3 28 14 17 15 17 10 1 -4 -13 -1 -17 12 -15 12 2 16 -3 14
-17 -2 -11 0 -16 4 -12 12 11 11 71 -1 79 -6 5 -4 8 5 8 15 0 18 19 20 143 0
26 4 45 9 42 6 -3 12 -1 16 5 3 5 -1 10 -9 10 -12 0 -14 5 -6 25 5 14 6 25 2
25 -4 0 0 5 8 10 9 6 10 10 3 10 -9 0 -12 22 -12 74 0 70 2 74 22 70 12 -2 16
-2 9 2 -6 3 -9 11 -5 17 5 8 8 8 11 -1 2 -7 7 -10 11 -7z m2351 -2074 c0 -15
-106 -82 -210 -133 -52 -25 -165 -81 -250 -123 -85 -41 -180 -89 -210 -105
-76 -39 -255 -100 -296 -100 -25 0 -43 -9 -67 -31 -62 -61 -197 -141 -337
-199 -36 -15 -96 -41 -135 -58 -238 -104 -393 -154 -540 -173 -99 -12 -258
-47 -495 -109 -135 -35 -396 -78 -407 -66 -2 2 36 9 84 16 140 19 266 45 443
94 91 24 212 52 270 61 211 33 318 61 425 110 17 8 79 32 139 55 60 22 114 44
120 49 6 5 40 19 76 31 124 41 301 152 359 225 9 11 22 15 38 12 28 -5 114 15
186 44 26 10 70 28 98 40 28 11 69 34 92 50 22 16 44 29 49 29 5 0 48 19 96
43 48 24 119 56 157 72 39 16 110 53 159 82 49 29 92 53 96 53 4 0 15 9 25 20
19 21 35 26 35 11z m-2561 -65 c-2 -2 -33 -17 -69 -32 -62 -27 -71 -29 -230
-29 -155 -1 -403 -16 -497 -31 -26 -4 -43 -3 -43 3 0 20 315 48 535 48 141 0
166 2 210 21 43 19 107 32 94 20z m2663 -713 c-45 -63 -150 -145 -282 -220
-85 -48 -116 -64 -460 -233 -184 -90 -377 -196 -520 -284 -87 -53 -351 -186
-372 -186 -7 0 -22 -6 -33 -14 -11 -7 -51 -25 -90 -39 -38 -13 -101 -36 -140
-50 -83 -30 -272 -87 -370 -112 -38 -10 -110 -29 -160 -42 -49 -13 -96 -22
-105 -21 -8 2 32 16 90 30 58 15 134 35 170 44 104 26 335 102 460 151 171 66
335 136 338 145 2 4 9 8 15 8 7 0 61 30 122 66 112 67 134 80 315 179 123 68
316 166 415 212 39 18 93 43 120 55 66 31 248 133 305 172 61 41 87 63 140
117 51 52 71 63 42 22z"/>
<path d="M3256 5512 c-4 -4 -22 -12 -39 -19 l-32 -11 28 -1 c17 -1 27 -6 27
-16 0 -8 -3 -15 -7 -16 -5 0 -17 -3 -28 -6 -11 -2 -28 -5 -37 -6 -10 -1 -18
-5 -18 -10 0 -4 -4 -6 -8 -3 -11 7 -71 -31 -78 -49 -4 -8 -9 -13 -14 -10 -4 2
-13 -7 -20 -20 -7 -14 -17 -25 -22 -25 -5 0 -7 -4 -4 -9 3 -5 -5 -20 -18 -34
-16 -17 -22 -34 -19 -47 4 -14 1 -20 -11 -20 -10 0 -14 -4 -11 -10 3 -5 1 -10
-4 -10 -20 0 -11 -16 9 -17 11 -1 18 2 15 8 -4 5 3 9 14 9 12 0 21 7 21 15 0
8 -4 15 -10 15 -19 0 -10 16 10 17 11 1 18 -2 15 -7 -3 -4 3 -11 12 -15 10 -3
19 -1 21 5 3 7 9 7 20 -2 12 -10 14 -10 8 0 -4 7 -2 12 7 12 29 0 7 40 -22 41
l-26 1 29 13 c17 7 56 11 88 10 32 -1 56 1 53 5 -2 3 2 7 10 7 8 0 15 -4 15
-9 0 -5 4 -7 9 -4 4 3 7 33 5 66 -3 50 -1 60 12 60 12 0 15 -6 10 -25 -6 -23
-4 -26 20 -23 17 2 28 -2 31 -12 4 -11 2 -12 -5 -2 -6 10 -15 10 -37 2 -15 -6
-26 -12 -24 -13 2 -2 13 -9 24 -17 19 -14 19 -14 6 3 -17 22 2 23 24 1 10 -11
24 -14 41 -10 19 5 24 4 18 -6 -6 -10 -3 -9 9 1 11 9 21 10 30 4 18 -14 153
-62 219 -77 41 -10 59 -10 62 -2 2 6 5 3 5 -6 1 -19 9 -22 35 -12 9 3 13 11 9
17 -4 6 0 8 11 4 10 -4 15 -3 11 3 -3 6 -1 10 5 10 7 0 9 9 5 23 -4 15 -3 18
3 8 7 -10 11 -3 16 25 11 70 11 77 -3 82 -9 3 -11 0 -7 -9 4 -8 1 -5 -8 5 -8
10 -17 22 -18 27 -4 10 -105 21 -212 22 -49 1 -83 3 -77 5 24 8 9 21 -39 32
-27 6 -54 9 -60 5 -6 -4 -9 -3 -8 2 2 4 1 8 -2 9 -3 0 -15 6 -27 13 -16 8 -23
8 -23 1 0 -7 -6 -8 -19 -1 -10 6 -22 7 -25 3z"/>
<path d="M3466 5081 c-3 -4 -36 -8 -74 -8 -75 -1 -130 -10 -149 -25 -7 -6 -13
-8 -13 -4 0 3 -9 -2 -20 -12 -12 -9 -24 -17 -28 -18 -32 -4 -86 -46 -75 -58 4
-3 1 -6 -5 -6 -7 0 -12 -7 -12 -16 0 -11 6 -15 19 -11 10 2 25 1 32 -4 10 -6
17 -1 26 19 7 15 12 21 13 15 0 -7 7 -13 16 -13 10 0 14 6 11 14 -4 9 2 17 14
21 10 4 19 11 19 16 0 5 5 9 10 9 6 0 10 -17 10 -38 0 -58 37 -92 101 -92 40
0 55 5 75 25 23 23 25 33 22 81 l-3 56 29 -6 c40 -8 115 -67 116 -90 0 -11 5
-16 14 -13 8 3 20 -1 26 -9 13 -14 12 -15 -42 -18 -9 -1 -20 -5 -24 -9 -5 -4
12 -6 36 -5 43 4 45 5 43 32 -1 16 -11 38 -21 50 -10 12 -22 30 -26 41 -6 20
-6 20 9 1 13 -17 15 -17 15 -4 0 24 -18 32 -36 17 -12 -10 -17 -10 -23 -1 -4
6 -25 18 -46 26 -22 8 -34 15 -26 15 11 1 11 4 1 16 -14 17 -26 19 -34 6z"/>
<path d="M3733 4267 c-21 -12 -18 -13 28 -15 67 -3 112 -11 119 -21 3 -5 16
-8 30 -6 14 1 36 -6 49 -16 13 -11 18 -19 11 -19 -22 0 40 -50 63 -52 75 -5
149 16 140 39 -4 11 -2 14 5 9 7 -4 12 -1 12 8 0 10 -6 13 -15 10 -8 -4 -15
-10 -15 -15 0 -5 -10 -9 -23 -9 -13 0 -28 -5 -34 -11 -8 -8 -13 -8 -17 0 -4 6
-13 11 -19 11 -7 0 -6 -4 3 -10 11 -7 8 -9 -15 -8 -36 2 -71 23 -56 33 6 3 16
3 21 0 6 -3 10 0 10 7 0 53 -229 103 -297 65z"/>
<path d="M4147 4078 c-9 -41 -1 -73 17 -70 9 2 16 -1 15 -5 -3 -20 2 -33 14
-33 7 0 18 -9 25 -20 7 -11 18 -20 25 -21 21 -1 81 -79 70 -90 -8 -8 -13 -8
-17 0 -4 5 -13 8 -21 4 -8 -3 -15 0 -15 6 0 8 -6 9 -18 2 -27 -14 -206 -9
-224 7 -13 10 -19 10 -31 -2 -8 -8 -23 -13 -33 -11 -100 17 -314 26 -376 14
-25 -4 -38 -3 -38 5 0 6 -4 4 -10 -4 -5 -8 -10 -12 -12 -10 -25 40 -25 45 10
78 37 36 34 52 -11 57 -17 2 -28 -4 -38 -21 -13 -25 -33 -31 -44 -14 -4 6 -10
8 -15 5 -5 -3 -11 -1 -15 5 -3 5 -23 -6 -45 -27 -33 -30 -39 -40 -33 -62 8
-36 8 -36 42 -11 37 26 66 23 66 -7 0 -12 3 -25 8 -29 4 -4 7 -2 7 4 0 7 15
12 36 12 25 0 33 -3 28 -12 -6 -10 -4 -10 7 -3 20 14 44 13 214 -11 22 -3 49
-6 60 -7 11 -1 23 -6 26 -10 9 -13 92 -17 106 -5 9 8 13 7 13 -2 0 -8 10 -11
29 -8 17 2 28 1 25 -4 -3 -4 2 -8 10 -8 10 0 13 6 10 15 -5 11 -2 13 10 9 9
-3 14 -10 11 -14 -3 -5 5 -6 17 -2 16 4 19 2 13 -9 -7 -12 -6 -12 7 -1 9 7 31
14 49 16 19 2 44 6 56 9 13 3 25 2 28 -4 4 -5 11 -9 16 -9 6 0 7 5 4 10 -8 13
8 13 21 0 12 -12 100 14 167 51 13 7 17 5 17 -6 0 -8 5 -15 11 -15 5 0 7 -6 3
-12 -5 -10 -4 -10 6 -1 7 7 13 27 13 44 l0 32 19 -23 c14 -17 18 -19 18 -6 0
9 -4 16 -10 16 -5 0 -10 7 -10 15 0 8 -4 15 -8 15 -4 0 -16 15 -27 33 -16 27
-45 54 -52 49 -2 -1 -23 7 -48 18 -43 18 -81 18 -69 -1 8 -14 -1 -10 -24 10
-12 10 -19 21 -15 25 3 3 1 6 -6 6 -7 0 -10 3 -7 8 2 4 -2 18 -9 32 l-13 25
-8 -29 -7 -29 -14 27 c-17 32 -19 32 -26 4z"/>
</g>
</svg>
